G75*
%MOIN*%
%OFA0B0*%
%FSLAX24Y24*%
%IPPOS*%
%LPD*%
%AMOC8*
5,1,8,0,0,1.08239X$1,22.5*
%
%ADD10C,0.0040*%
%ADD11C,0.0050*%
%ADD12C,0.0080*%
D10*
X016489Y001380D02*
X016624Y001380D01*
X016556Y001380D02*
X016556Y001785D01*
X016489Y001785D01*
X016556Y002010D02*
X016759Y002010D01*
X016899Y002077D02*
X016966Y002010D01*
X017169Y002010D01*
X017169Y002212D01*
X017101Y002280D01*
X016966Y002280D01*
X016966Y002145D02*
X017169Y002145D01*
X017308Y002145D02*
X017443Y002280D01*
X017511Y002280D01*
X017650Y002280D02*
X017650Y002010D01*
X017650Y002145D02*
X017785Y002280D01*
X017852Y002280D01*
X017991Y002280D02*
X018058Y002280D01*
X018058Y002010D01*
X017991Y002010D02*
X018126Y002010D01*
X018264Y002077D02*
X018332Y002010D01*
X018467Y002010D01*
X018534Y002145D02*
X018264Y002145D01*
X018264Y002212D02*
X018332Y002280D01*
X018467Y002280D01*
X018534Y002212D01*
X018534Y002145D01*
X018674Y002145D02*
X018809Y002280D01*
X018876Y002280D01*
X018674Y002280D02*
X018674Y002010D01*
X018672Y001650D02*
X018740Y001650D01*
X018672Y001650D02*
X018537Y001515D01*
X018537Y001380D02*
X018537Y001650D01*
X018398Y001582D02*
X018398Y001515D01*
X018127Y001515D01*
X018127Y001582D02*
X018195Y001650D01*
X018330Y001650D01*
X018398Y001582D01*
X018330Y001380D02*
X018195Y001380D01*
X018127Y001447D01*
X018127Y001582D01*
X017922Y001650D02*
X017922Y001380D01*
X017989Y001380D02*
X017854Y001380D01*
X017854Y001650D02*
X017922Y001650D01*
X017922Y001785D02*
X017922Y001853D01*
X017716Y001650D02*
X017648Y001650D01*
X017513Y001515D01*
X017513Y001380D02*
X017513Y001650D01*
X017374Y001650D02*
X017307Y001650D01*
X017172Y001515D01*
X017172Y001380D02*
X017172Y001650D01*
X017032Y001582D02*
X016965Y001650D01*
X016830Y001650D01*
X016762Y001582D01*
X016762Y001447D01*
X016830Y001380D01*
X016965Y001380D01*
X017032Y001447D01*
X017032Y001582D01*
X017308Y002010D02*
X017308Y002280D01*
X016966Y002145D02*
X016899Y002077D01*
X016759Y002280D02*
X016556Y002280D01*
X016489Y002212D01*
X016489Y002077D01*
X016556Y002010D01*
X018058Y002415D02*
X018058Y002483D01*
X018264Y002212D02*
X018264Y002077D01*
X018878Y001447D02*
X018946Y001447D01*
X018946Y001380D01*
X018878Y001380D01*
X018878Y001447D01*
X019083Y001447D02*
X019151Y001380D01*
X019353Y001380D01*
X019493Y001447D02*
X019560Y001380D01*
X019696Y001380D01*
X019763Y001447D01*
X019763Y001582D01*
X019696Y001650D01*
X019560Y001650D01*
X019493Y001582D01*
X019493Y001447D01*
X019353Y001650D02*
X019151Y001650D01*
X019083Y001582D01*
X019083Y001447D01*
X019492Y002010D02*
X019695Y002010D01*
X019695Y001942D02*
X019695Y002280D01*
X019492Y002280D01*
X019425Y002212D01*
X019425Y002077D01*
X019492Y002010D01*
X019560Y001875D02*
X019627Y001875D01*
X019695Y001942D01*
X019834Y002010D02*
X019834Y002280D01*
X019834Y002145D02*
X019969Y002280D01*
X020037Y002280D01*
X020243Y002280D02*
X020378Y002280D01*
X020446Y002212D01*
X020446Y002010D01*
X020243Y002010D01*
X020176Y002077D01*
X020243Y002145D01*
X020446Y002145D01*
X020585Y002212D02*
X020653Y002280D01*
X020855Y002280D01*
X020855Y002415D02*
X020855Y002010D01*
X020653Y002010D01*
X020585Y002077D01*
X020585Y002212D01*
X020105Y001650D02*
X020173Y001582D01*
X020173Y001380D01*
X020038Y001380D02*
X020038Y001582D01*
X020105Y001650D01*
X020038Y001582D02*
X019970Y001650D01*
X019903Y001650D01*
X019903Y001380D01*
X020995Y002077D02*
X021062Y002010D01*
X021198Y002010D01*
X021265Y002145D02*
X020995Y002145D01*
X020995Y002212D02*
X021062Y002280D01*
X021198Y002280D01*
X021265Y002212D01*
X021265Y002145D01*
X020995Y002077D02*
X020995Y002212D01*
X021814Y002010D02*
X021949Y002010D01*
X021882Y002010D02*
X021882Y002415D01*
X021949Y002415D02*
X021814Y002415D01*
X022087Y002212D02*
X022087Y002077D01*
X022155Y002010D01*
X022290Y002010D01*
X022357Y002077D01*
X022357Y002212D01*
X022290Y002280D01*
X022155Y002280D01*
X022087Y002212D01*
X022497Y002415D02*
X022767Y002415D01*
X022632Y002415D02*
X022632Y002010D01*
X022142Y038929D02*
X021912Y038929D01*
X021912Y039389D01*
X022142Y039389D01*
X022219Y039313D01*
X022219Y039006D01*
X022142Y038929D01*
X021758Y038929D02*
X021758Y039389D01*
X021451Y039389D02*
X021758Y038929D01*
X021451Y038929D02*
X021451Y039389D01*
X021298Y039313D02*
X021221Y039389D01*
X021068Y039389D01*
X020991Y039313D01*
X020991Y039006D01*
X021068Y038929D01*
X021221Y038929D01*
X021298Y039006D01*
X021298Y039159D01*
X021144Y039159D01*
X020508Y039083D02*
X020355Y038929D01*
X020201Y039083D01*
X020201Y039389D01*
X020048Y039389D02*
X019741Y039389D01*
X019741Y039159D01*
X019894Y039236D01*
X019971Y039236D01*
X020048Y039159D01*
X020048Y039006D01*
X019971Y038929D01*
X019818Y038929D01*
X019741Y039006D01*
X020508Y039083D02*
X020508Y039389D01*
X009760Y039515D02*
X009760Y039208D01*
X009683Y039131D01*
X009453Y039131D01*
X009453Y039591D01*
X009683Y039591D01*
X009760Y039515D01*
X009299Y039591D02*
X009299Y039131D01*
X008992Y039591D01*
X008992Y039131D01*
X008839Y039208D02*
X008839Y039361D01*
X008685Y039361D01*
X008532Y039208D02*
X008532Y039515D01*
X008609Y039591D01*
X008762Y039591D01*
X008839Y039515D01*
X008839Y039208D02*
X008762Y039131D01*
X008609Y039131D01*
X008532Y039208D01*
X008299Y039131D02*
X007992Y039591D01*
X007839Y039591D02*
X007532Y039591D01*
X007685Y039591D02*
X007685Y039131D01*
X007992Y039131D02*
X008299Y039591D01*
X007174Y039591D02*
X006867Y039131D01*
X006714Y039131D02*
X006560Y039284D01*
X006637Y039284D02*
X006407Y039284D01*
X006407Y039131D02*
X006407Y039591D01*
X006637Y039591D01*
X006714Y039515D01*
X006714Y039361D01*
X006637Y039284D01*
X006867Y039591D02*
X007174Y039131D01*
X006174Y039284D02*
X006174Y039591D01*
X006174Y039284D02*
X006021Y039131D01*
X005867Y039284D01*
X005867Y039591D01*
X005714Y039591D02*
X005407Y039591D01*
X005407Y039361D01*
X005560Y039438D01*
X005637Y039438D01*
X005714Y039361D01*
X005714Y039208D01*
X005637Y039131D01*
X005484Y039131D01*
X005407Y039208D01*
D11*
X019737Y038553D02*
X019737Y037647D01*
X019933Y037411D01*
X021508Y037411D01*
X021705Y037647D01*
X021705Y038553D01*
X021508Y038828D01*
X019933Y038828D01*
X019737Y038553D01*
D12*
X009262Y038611D02*
X009262Y037611D01*
X009012Y037361D01*
X005512Y037361D01*
X005262Y037611D01*
X005262Y038611D01*
X005512Y038861D01*
X009012Y038861D01*
X009262Y038611D01*
X020039Y003734D02*
X020039Y003580D01*
X020039Y003274D02*
X020039Y002660D01*
X020192Y002660D02*
X019885Y002660D01*
X019885Y003274D02*
X020039Y003274D01*
X019578Y003274D02*
X019425Y003274D01*
X019118Y002967D01*
X019118Y002660D02*
X019118Y003274D01*
X018811Y003274D02*
X018657Y003274D01*
X018350Y002967D01*
X018350Y002660D02*
X018350Y003274D01*
X018044Y003120D02*
X017890Y003274D01*
X017583Y003274D01*
X017430Y003120D01*
X017430Y002813D01*
X017583Y002660D01*
X017890Y002660D01*
X018044Y002813D01*
X018044Y003120D01*
X017123Y002660D02*
X016509Y002660D01*
X016509Y003580D01*
X020499Y003120D02*
X020499Y002813D01*
X020652Y002660D01*
X020959Y002660D01*
X021113Y002967D02*
X020499Y002967D01*
X020499Y003120D02*
X020652Y003274D01*
X020959Y003274D01*
X021113Y003120D01*
X021113Y002967D01*
X021420Y002967D02*
X021727Y003274D01*
X021880Y003274D01*
X021420Y003274D02*
X021420Y002660D01*
X023108Y002660D02*
X023568Y002660D01*
X023722Y002813D01*
X023722Y002967D01*
X023568Y003120D01*
X023108Y003120D01*
X023108Y002660D02*
X023108Y003580D01*
X023568Y003580D01*
X023722Y003427D01*
X023722Y003274D01*
X023568Y003120D01*
X024029Y002660D02*
X024336Y002660D01*
X024182Y002660D02*
X024182Y003580D01*
X024029Y003580D02*
X024336Y003580D01*
X024643Y003274D02*
X024949Y003580D01*
X024949Y002660D01*
X024643Y002660D02*
X025256Y002660D01*
M02*
