%
M48
M72
T01C0.0118
T02C0.0394
T03C0.0400
T04C0.1260
T05C0.1732
%
T01
X3201Y3671
X4185Y4655
X4185Y2687
X6154Y4773
X7138Y5639
X8083Y4773
X9107Y5639
X8122Y6624
X9107Y7608
X8122Y8592
X9107Y9576
X8122Y10561
X9107Y11545
X8122Y12529
X9107Y13513
X8122Y14498
X9107Y15482
X8122Y16466
X9107Y17450
X8122Y18435
X9107Y19419
X8122Y20403
X9107Y21387
X8122Y22372
X9107Y23356
X8122Y24340
X9107Y25226
X8122Y26309
X9107Y27293
X10091Y26112
X11075Y25128
X10091Y24340
X11075Y23257
X10091Y22372
X11075Y21387
X10091Y20403
X11075Y19419
X10091Y18435
X11075Y17450
X10091Y16466
X11075Y15482
X10091Y14498
X11075Y13513
X10091Y12529
X11075Y11545
X10091Y10561
X11075Y9576
X10091Y8592
X11075Y7608
X10091Y6624
X11075Y5639
X10091Y4655
X11075Y3671
X12059Y4655
X13044Y3671
X14028Y4655
X15012Y3671
X15996Y4655
X16981Y3671
X17965Y4655
X18949Y3671
X19933Y4655
X18949Y5639
X19933Y6624
X18949Y7608
X19933Y8592
X18949Y9576
X19933Y10561
X18949Y11545
X19933Y12529
X18949Y13513
X19933Y14498
X18949Y15482
X19933Y16466
X18949Y17450
X19933Y18435
X18949Y19419
X19933Y20403
X18949Y21387
X19933Y22175
X18949Y23159
X19933Y24143
X18949Y25128
X19933Y26112
X18949Y27293
X19933Y28277
X20918Y27293
X21902Y26112
X20918Y25128
X21902Y24143
X20918Y23159
X21902Y22175
X20918Y21387
X21902Y20403
X20918Y19419
X21902Y18435
X20918Y17450
X21902Y16466
X20918Y15482
X21902Y14498
X20918Y13513
X21902Y12529
X20918Y11545
X21902Y10561
X20918Y9576
X21902Y8592
X20918Y7608
X20918Y3671
X21902Y2687
X20918Y1702
X19933Y2687
X18949Y1702
X17965Y2687
X16981Y1702
X16981Y5639
X15996Y6624
X16981Y7608
X15996Y8592
X16981Y9576
X15996Y10561
X16981Y11545
X15996Y12529
X16981Y13513
X15996Y14498
X16981Y15482
X15996Y16466
X16981Y17450
X15996Y18435
X16981Y19419
X15996Y20403
X16981Y21387
X15996Y22175
X16981Y23159
X15996Y24143
X16981Y25128
X15996Y26112
X16981Y27293
X17965Y26112
X17965Y24143
X17965Y22175
X17965Y20403
X17965Y18435
X17965Y16466
X17965Y14498
X17965Y12529
X17965Y10561
X17965Y8592
X17965Y6624
X15012Y7608
X14028Y8592
X15012Y9576
X14028Y10561
X15012Y11545
X14028Y12529
X15012Y13513
X14028Y14498
X15012Y15482
X14028Y16466
X15012Y17450
X14028Y18435
X15012Y19419
X14028Y20403
X15012Y21387
X14028Y22175
X15012Y23159
X14028Y24143
X15012Y25128
X14028Y26112
X15012Y27293
X13044Y27293
X12059Y26112
X13044Y25128
X12059Y24143
X13044Y23159
X12059Y22372
X13044Y21387
X12059Y20403
X13044Y19419
X12059Y18435
X13044Y17450
X12059Y16466
X13044Y15482
X12059Y14498
X13044Y13513
X12059Y12529
X13044Y11545
X12059Y10561
X13044Y9576
X12059Y8592
X13044Y7608
X12059Y6624
X13044Y5639
X14028Y6624
X15012Y5639
X9107Y3671
X7138Y7608
X6154Y8592
X7138Y9576
X6154Y10561
X7138Y11545
X6154Y12529
X7138Y13513
X6154Y14498
X7138Y15482
X6154Y16466
X7138Y17450
X6154Y18435
X7138Y19419
X7138Y21387
X6154Y22470
X7138Y23356
X6154Y24340
X7138Y25324
X6228Y26309
X7212Y27293
X8319Y28671
X9107Y29261
X8319Y30246
X9107Y31230
X8319Y32214
X9107Y33198
X8319Y34183
X9107Y35167
X8319Y36151
X9107Y37135
X10091Y36151
X10091Y34183
X10091Y32214
X10091Y30246
X10091Y28671
X11075Y27293
X7256Y31230
X7256Y33198
X7256Y35167
X7296Y37135
X7138Y39104
X5170Y39104
X4185Y38120
X3398Y39104
X3201Y37135
X4185Y36151
X5170Y35167
X4185Y34183
X5170Y33297
X5170Y37135
X2217Y32214
X1233Y33198
X1233Y36151
X2217Y30344
X2217Y28277
X1233Y27293
X2138Y26309
X1233Y25324
X2138Y24340
X1233Y23356
X2138Y22372
X1233Y21387
X2138Y20403
X1233Y19419
X2138Y18435
X1233Y17450
X2138Y16466
X1233Y15482
X2138Y14576
X1225Y10714
X2217Y10561
X1233Y9576
X2217Y8592
X1233Y7608
X3201Y7608
X5170Y9576
X5170Y11545
X5170Y13513
X5170Y15482
X5170Y19419
X5170Y21387
X5268Y25226
X5268Y27293
X5268Y29261
X7237Y29261
X10091Y38120
X9107Y39104
X18949Y39104
X18949Y37135
X18949Y35167
X18949Y33198
X18949Y31230
X20918Y31230
X20918Y33198
X21902Y34183
X20918Y35167
X21902Y36151
X20918Y37135
X21902Y38120
X20918Y39104
X22886Y39104
X23870Y38120
X22886Y37135
X24559Y36840
X25839Y36151
X26823Y35167
X25839Y34183
X24855Y33198
X25839Y32214
X24855Y31230
X25839Y30246
X26823Y31230
X26823Y33198
X26823Y29261
X26823Y27293
X26823Y25324
X26823Y23356
X26823Y21387
X26823Y19419
X26823Y17450
X26823Y15482
X26823Y13513
X26823Y11545
X26823Y9576
X25839Y8592
X24855Y7608
X25839Y6624
X26823Y7608
X26823Y5639
X25839Y4655
X24855Y3671
X23870Y2687
X22886Y3671
X22886Y1702
X26823Y3671
X24855Y9576
X24559Y11545
X24559Y13513
X24559Y15482
X24559Y17450
X24559Y19419
X24559Y21387
X24559Y23159
X24559Y25128
X24559Y27293
X24559Y29261
X20918Y29261
T02
X1331Y1801
X1036Y2490
X1331Y3179
X2020Y3474
X2709Y3179
X3004Y2490
X2709Y1801
X2020Y1506
X3603Y8049
X3603Y9049
X3603Y10049
X3603Y11049
X3603Y12049
X3603Y13049
X3603Y14049
X3603Y15049
X3603Y16049
X3603Y17049
X3603Y18049
X3603Y19049
X3603Y20049
X3603Y21049
X3603Y22049
X3603Y23049
X3603Y24049
X3603Y25049
X3603Y26049
X3603Y27049
X3603Y28049
X3603Y29049
X3603Y30049
X4603Y30049
X4603Y29049
X4603Y28049
X4603Y27049
X4603Y26049
X4603Y25049
X4603Y24049
X4603Y23049
X4603Y22049
X4603Y21049
X4603Y20049
X4603Y19049
X4603Y18049
X4603Y17049
X4603Y16049
X4603Y15049
X4603Y14049
X4603Y13049
X4603Y12049
X4603Y11049
X4603Y10049
X4603Y9049
X4603Y8049
X1276Y11592
X1276Y12592
X1276Y13592
X1284Y28592
X1284Y29592
X1284Y30592
X2020Y37332
X2693Y37639
X3004Y38317
X2741Y38970
X2020Y39301
X1331Y39013
X1036Y38317
X1327Y37612
X20221Y38120
X21221Y38120
X24855Y38317
X25150Y39006
X25839Y39301
X26528Y39006
X26823Y38317
X26528Y37628
X25839Y37332
X25150Y37628
X23532Y30049
X23532Y29049
X23532Y28049
X23532Y27049
X23532Y26049
X23532Y25049
X23532Y24049
X23532Y23049
X23532Y22049
X23532Y21049
X23532Y20049
X23532Y19049
X23532Y18049
X23532Y17049
X23532Y16049
X23532Y15049
X23532Y14049
X23532Y13049
X23532Y12049
X23532Y11049
X23532Y10049
X23532Y9049
X23532Y8049
X22532Y8049
X22532Y9049
X22532Y10049
X22532Y11049
X22532Y12049
X22532Y13049
X22532Y14049
X22532Y15049
X22532Y16049
X22532Y17049
X22532Y18049
X22532Y19049
X22532Y20049
X22532Y21049
X22532Y22049
X22532Y23049
X22532Y24049
X22532Y25049
X22532Y26049
X22532Y27049
X22532Y28049
X22532Y29049
X22532Y30049
X25370Y29631
X25370Y28631
X25370Y27631
X25370Y26631
X25370Y25631
X25370Y24631
X25370Y23631
X25370Y22631
X25370Y21631
X25370Y20631
X25370Y19631
X25370Y18631
X25370Y17631
X25370Y16631
X25370Y15631
X25370Y14631
X25370Y13631
X25370Y12631
X25370Y11631
X25370Y10631
X25839Y3474
X25150Y3179
X24855Y2490
X25150Y1801
X25839Y1506
X26528Y1801
X26823Y2490
X26528Y3179
T03
X8762Y38111
X7762Y38111
X6762Y38111
X5762Y38111
T04
X2020Y38317
X25839Y38317
X25839Y2490
X2020Y2490
T05
X2410Y5592
X5244Y6214
X21800Y6155
X23985Y5750
X23059Y31943
X24063Y34706
X4083Y31943
X2410Y34726
M30
