G75*
%MOIN*%
%OFA0B0*%
%FSLAX24Y24*%
%IPPOS*%
%LPD*%
%AMOC8*
5,1,8,0,0,1.08239X$1,22.5*
%
%ADD10R,0.7661X0.1945*%
%ADD11C,0.0672*%
%ADD12C,0.0672*%
%ADD13C,0.0394*%
%ADD14C,0.0679*%
%ADD15R,0.2992X0.2992*%
%ADD16C,0.2992*%
%ADD17C,0.2756*%
%ADD18C,0.0669*%
D10*
X012146Y002257D03*
D11*
X004603Y008049D03*
X004603Y009049D03*
X004603Y010049D03*
X004603Y011049D03*
X004603Y012049D03*
X004603Y013049D03*
X004603Y014049D03*
X004603Y015049D03*
X004603Y016049D03*
X004603Y017049D03*
X004603Y018049D03*
X004603Y019049D03*
X004603Y020049D03*
X004603Y021049D03*
X004603Y022049D03*
X004603Y023049D03*
X004603Y024049D03*
X004603Y025049D03*
X004603Y026049D03*
X004603Y027049D03*
X004603Y028049D03*
X004603Y029049D03*
X004603Y030049D03*
X003603Y030049D03*
X003603Y029049D03*
X003603Y028049D03*
X003603Y027049D03*
X003603Y026049D03*
X003603Y025049D03*
X003603Y024049D03*
X003603Y023049D03*
X003603Y022049D03*
X003603Y021049D03*
X003603Y020049D03*
X003603Y019049D03*
X003603Y018049D03*
X003603Y017049D03*
X003603Y016049D03*
X003603Y015049D03*
X003603Y014049D03*
X003603Y013049D03*
X003603Y012049D03*
X003603Y011049D03*
X003603Y010049D03*
X003603Y009049D03*
X003603Y008049D03*
X001276Y011592D03*
X001276Y012592D03*
X001276Y013592D03*
X001284Y028592D03*
X001284Y029592D03*
X001284Y030592D03*
X022532Y030049D03*
X022532Y029049D03*
X022532Y028049D03*
X022532Y027049D03*
X022532Y026049D03*
X022532Y025049D03*
X022532Y024049D03*
X022532Y023049D03*
X022532Y022049D03*
X022532Y021049D03*
X022532Y020049D03*
X022532Y019049D03*
X022532Y018049D03*
X022532Y017049D03*
X022532Y016049D03*
X022532Y015049D03*
X022532Y014049D03*
X022532Y013049D03*
X022532Y012049D03*
X022532Y011049D03*
X022532Y010049D03*
X022532Y009049D03*
X022532Y008049D03*
X023532Y008049D03*
X023532Y009049D03*
X023532Y010049D03*
X023532Y011049D03*
X023532Y012049D03*
X023532Y013049D03*
X023532Y014049D03*
X023532Y015049D03*
X023532Y016049D03*
X023532Y017049D03*
X023532Y018049D03*
X023532Y019049D03*
X023532Y020049D03*
X023532Y021049D03*
X023532Y022049D03*
X023532Y023049D03*
X023532Y024049D03*
X023532Y025049D03*
X023532Y026049D03*
X023532Y027049D03*
X023532Y028049D03*
X023532Y029049D03*
X023532Y030049D03*
X025370Y029631D03*
X025370Y028631D03*
X025370Y027631D03*
X025370Y026631D03*
X025370Y025631D03*
X025370Y024631D03*
X025370Y023631D03*
X025370Y022631D03*
X025370Y021631D03*
X025370Y020631D03*
X025370Y019631D03*
X025370Y018631D03*
X025370Y017631D03*
X025370Y016631D03*
X025370Y015631D03*
X025370Y014631D03*
X025370Y013631D03*
X025370Y012631D03*
X025370Y011631D03*
X025370Y010631D03*
D12*
X021221Y037823D02*
X021221Y038417D01*
X020221Y038417D02*
X020221Y037823D01*
D13*
X001626Y036545D02*
X001628Y036572D01*
X001634Y036599D01*
X001643Y036625D01*
X001656Y036649D01*
X001672Y036672D01*
X001691Y036691D01*
X001713Y036708D01*
X001737Y036722D01*
X001762Y036732D01*
X001789Y036739D01*
X001816Y036742D01*
X001844Y036741D01*
X001871Y036736D01*
X001897Y036728D01*
X001921Y036716D01*
X001944Y036700D01*
X001965Y036682D01*
X001982Y036661D01*
X001997Y036637D01*
X002008Y036612D01*
X002016Y036586D01*
X002020Y036559D01*
X002020Y036531D01*
X002016Y036504D01*
X002008Y036478D01*
X001997Y036453D01*
X001982Y036429D01*
X001965Y036408D01*
X001944Y036390D01*
X001922Y036374D01*
X001897Y036362D01*
X001871Y036354D01*
X001844Y036349D01*
X001816Y036348D01*
X001789Y036351D01*
X001762Y036358D01*
X001737Y036368D01*
X001713Y036382D01*
X001691Y036399D01*
X001672Y036418D01*
X001656Y036441D01*
X001643Y036465D01*
X001634Y036491D01*
X001628Y036518D01*
X001626Y036545D01*
X005957Y009380D02*
X005959Y009407D01*
X005965Y009434D01*
X005974Y009460D01*
X005987Y009484D01*
X006003Y009507D01*
X006022Y009526D01*
X006044Y009543D01*
X006068Y009557D01*
X006093Y009567D01*
X006120Y009574D01*
X006147Y009577D01*
X006175Y009576D01*
X006202Y009571D01*
X006228Y009563D01*
X006252Y009551D01*
X006275Y009535D01*
X006296Y009517D01*
X006313Y009496D01*
X006328Y009472D01*
X006339Y009447D01*
X006347Y009421D01*
X006351Y009394D01*
X006351Y009366D01*
X006347Y009339D01*
X006339Y009313D01*
X006328Y009288D01*
X006313Y009264D01*
X006296Y009243D01*
X006275Y009225D01*
X006253Y009209D01*
X006228Y009197D01*
X006202Y009189D01*
X006175Y009184D01*
X006147Y009183D01*
X006120Y009186D01*
X006093Y009193D01*
X006068Y009203D01*
X006044Y009217D01*
X006022Y009234D01*
X006003Y009253D01*
X005987Y009276D01*
X005974Y009300D01*
X005965Y009326D01*
X005959Y009353D01*
X005957Y009380D01*
X019736Y007411D02*
X019738Y007438D01*
X019744Y007465D01*
X019753Y007491D01*
X019766Y007515D01*
X019782Y007538D01*
X019801Y007557D01*
X019823Y007574D01*
X019847Y007588D01*
X019872Y007598D01*
X019899Y007605D01*
X019926Y007608D01*
X019954Y007607D01*
X019981Y007602D01*
X020007Y007594D01*
X020031Y007582D01*
X020054Y007566D01*
X020075Y007548D01*
X020092Y007527D01*
X020107Y007503D01*
X020118Y007478D01*
X020126Y007452D01*
X020130Y007425D01*
X020130Y007397D01*
X020126Y007370D01*
X020118Y007344D01*
X020107Y007319D01*
X020092Y007295D01*
X020075Y007274D01*
X020054Y007256D01*
X020032Y007240D01*
X020007Y007228D01*
X019981Y007220D01*
X019954Y007215D01*
X019926Y007214D01*
X019899Y007217D01*
X019872Y007224D01*
X019847Y007234D01*
X019823Y007248D01*
X019801Y007265D01*
X019782Y007284D01*
X019766Y007307D01*
X019753Y007331D01*
X019744Y007357D01*
X019738Y007384D01*
X019736Y007411D01*
D14*
X008762Y037811D02*
X008762Y038411D01*
X007762Y038411D02*
X007762Y037811D01*
X006762Y037811D02*
X006762Y038411D01*
X005762Y038411D02*
X005762Y037811D01*
D15*
X006520Y002923D03*
D16*
X005244Y006214D03*
X002410Y005592D03*
X004083Y031943D03*
X002410Y034726D03*
X021800Y006155D03*
X023985Y005750D03*
X023059Y031943D03*
X024063Y034706D03*
D17*
X025839Y038317D03*
X002020Y038317D03*
X002020Y002490D03*
X025839Y002490D03*
D18*
X001331Y001801D03*
X001036Y002490D03*
X001331Y003179D03*
X002020Y003474D03*
X002709Y003179D03*
X003004Y002490D03*
X002709Y001801D03*
X002020Y001506D03*
X024855Y002490D03*
X025150Y003179D03*
X025839Y003474D03*
X026528Y003179D03*
X026823Y002490D03*
X026528Y001801D03*
X025839Y001506D03*
X025150Y001801D03*
X025839Y037332D03*
X025150Y037628D03*
X024855Y038317D03*
X025150Y039006D03*
X025839Y039301D03*
X026528Y039006D03*
X026823Y038317D03*
X026528Y037628D03*
X003004Y038317D03*
X002741Y038970D03*
X002020Y039301D03*
X001331Y039013D03*
X001036Y038317D03*
X001327Y037612D03*
X002020Y037332D03*
X002693Y037639D03*
M02*
