G75*
%MOIN*%
%OFA0B0*%
%FSLAX24Y24*%
%IPPOS*%
%LPD*%
%AMOC8*
5,1,8,0,0,1.08239X$1,22.5*
%
%ADD10C,0.0060*%
%ADD11C,0.0050*%
%ADD12C,0.0594*%
%ADD13C,0.0594*%
%ADD14C,0.0197*%
%ADD15C,0.0600*%
%ADD16R,0.0201X0.0012*%
%ADD17R,0.0413X0.0012*%
%ADD18R,0.0331X0.0012*%
%ADD19R,0.0425X0.0012*%
%ADD20R,0.0496X0.0012*%
%ADD21R,0.0567X0.0012*%
%ADD22R,0.0614X0.0012*%
%ADD23R,0.0543X0.0012*%
%ADD24R,0.0673X0.0012*%
%ADD25R,0.0720X0.0012*%
%ADD26R,0.0768X0.0012*%
%ADD27R,0.0803X0.0012*%
%ADD28R,0.0850X0.0012*%
%ADD29R,0.0886X0.0012*%
%ADD30R,0.0921X0.0012*%
%ADD31R,0.1500X0.0012*%
%ADD32R,0.0461X0.0012*%
%ADD33R,0.0484X0.0012*%
%ADD34R,0.0520X0.0012*%
%ADD35R,0.0591X0.0012*%
%ADD36R,0.0626X0.0012*%
%ADD37R,0.0650X0.0012*%
%ADD38R,0.0685X0.0012*%
%ADD39R,0.0709X0.0012*%
%ADD40R,0.0744X0.0012*%
%ADD41R,0.0756X0.0012*%
%ADD42R,0.0780X0.0012*%
%ADD43R,0.1252X0.0012*%
%ADD44R,0.0791X0.0012*%
%ADD45R,0.1181X0.0012*%
%ADD46R,0.1110X0.0012*%
%ADD47R,0.0815X0.0012*%
%ADD48R,0.1075X0.0012*%
%ADD49R,0.0839X0.0012*%
%ADD50R,0.1028X0.0012*%
%ADD51R,0.1004X0.0012*%
%ADD52R,0.0862X0.0012*%
%ADD53R,0.0969X0.0012*%
%ADD54R,0.0874X0.0012*%
%ADD55R,0.0945X0.0012*%
%ADD56R,0.0933X0.0012*%
%ADD57R,0.0898X0.0012*%
%ADD58R,0.0909X0.0012*%
%ADD59R,0.0957X0.0012*%
%ADD60R,0.0827X0.0012*%
%ADD61R,0.0980X0.0012*%
%ADD62R,0.0992X0.0012*%
%ADD63R,0.1866X0.0012*%
%ADD64R,0.0224X0.0012*%
%ADD65R,0.1417X0.0012*%
%ADD66R,0.1406X0.0012*%
%ADD67R,0.0402X0.0012*%
%ADD68R,0.1382X0.0012*%
%ADD69R,0.1370X0.0012*%
%ADD70R,0.1346X0.0012*%
%ADD71R,0.1335X0.0012*%
%ADD72R,0.0602X0.0012*%
%ADD73R,0.1323X0.0012*%
%ADD74R,0.1299X0.0012*%
%ADD75R,0.1287X0.0012*%
%ADD76R,0.1276X0.0012*%
%ADD77R,0.1264X0.0012*%
%ADD78R,0.1240X0.0012*%
%ADD79R,0.1228X0.0012*%
%ADD80R,0.1217X0.0012*%
%ADD81R,0.1205X0.0012*%
%ADD82R,0.1193X0.0012*%
%ADD83R,0.2126X0.0012*%
%ADD84R,0.2114X0.0012*%
%ADD85R,0.0579X0.0012*%
%ADD86R,0.0555X0.0012*%
%ADD87R,0.1169X0.0012*%
%ADD88R,0.1063X0.0012*%
%ADD89R,0.1016X0.0012*%
%ADD90R,0.0531X0.0012*%
%ADD91R,0.0508X0.0012*%
%ADD92R,0.0732X0.0012*%
%ADD93R,0.0142X0.0012*%
%ADD94R,0.0236X0.0012*%
%ADD95R,0.0307X0.0012*%
%ADD96R,0.0354X0.0012*%
%ADD97R,0.0449X0.0012*%
%ADD98R,0.1713X0.0012*%
%ADD99R,0.1724X0.0012*%
%ADD100R,0.1736X0.0012*%
%ADD101R,0.1748X0.0012*%
%ADD102R,0.1760X0.0012*%
%ADD103R,0.1772X0.0012*%
%ADD104R,0.1783X0.0012*%
%ADD105R,0.1795X0.0012*%
%ADD106R,0.1807X0.0012*%
%ADD107R,0.0697X0.0012*%
%ADD108R,0.1819X0.0012*%
%ADD109R,0.1831X0.0012*%
%ADD110R,0.1843X0.0012*%
%ADD111R,0.0661X0.0012*%
%ADD112R,0.1854X0.0012*%
%ADD113R,0.1878X0.0012*%
%ADD114R,0.0638X0.0012*%
%ADD115R,0.1654X0.0012*%
%ADD116R,0.1618X0.0012*%
%ADD117R,0.1583X0.0012*%
%ADD118R,0.1559X0.0012*%
%ADD119R,0.1524X0.0012*%
%ADD120R,0.1512X0.0012*%
%ADD121R,0.1476X0.0012*%
%ADD122R,0.1465X0.0012*%
%ADD123R,0.1441X0.0012*%
%ADD124R,0.1394X0.0012*%
%ADD125R,0.0472X0.0012*%
%ADD126R,0.0248X0.0012*%
%ADD127R,0.0283X0.0012*%
%ADD128R,0.0378X0.0012*%
%ADD129R,0.0437X0.0012*%
%ADD130C,0.2913*%
%ADD131C,0.2677*%
%ADD132C,0.0591*%
%ADD133C,0.0278*%
%ADD134C,0.0100*%
%ADD135C,0.0320*%
%ADD136C,0.0240*%
%ADD137C,0.0120*%
%ADD138C,0.0560*%
D10*
X008743Y001536D02*
X009170Y001536D01*
X008957Y001536D02*
X008957Y002176D01*
X008743Y001963D01*
X009388Y001963D02*
X009494Y001856D01*
X009815Y001856D01*
X009815Y002069D02*
X009815Y001642D01*
X009708Y001536D01*
X009494Y001536D01*
X009388Y001642D01*
X009388Y001963D02*
X009388Y002069D01*
X009494Y002176D01*
X009708Y002176D01*
X009815Y002069D01*
X010032Y001642D02*
X010139Y001642D01*
X010139Y001536D01*
X010032Y001536D01*
X010032Y001642D01*
X010354Y001536D02*
X010781Y001536D01*
X010568Y001536D02*
X010568Y002176D01*
X010354Y001963D01*
X010999Y001642D02*
X010999Y001536D01*
X011106Y001536D01*
X011106Y001642D01*
X010999Y001642D01*
X011321Y001536D02*
X011748Y001536D01*
X011535Y001536D02*
X011535Y002176D01*
X011321Y001963D01*
X011966Y001642D02*
X011966Y001536D01*
X012072Y001536D01*
X012072Y001642D01*
X011966Y001642D01*
X012288Y001963D02*
X012502Y001536D01*
X012715Y001963D01*
X012933Y001963D02*
X013146Y002176D01*
X013146Y001536D01*
X012933Y001536D02*
X013360Y001536D01*
X013577Y001536D02*
X013577Y001642D01*
X013684Y001642D01*
X013684Y001536D01*
X013577Y001536D01*
X013899Y001536D02*
X014326Y001536D01*
X014113Y001536D02*
X014113Y002176D01*
X013899Y001963D01*
X014544Y001963D02*
X014544Y002069D01*
X014651Y002176D01*
X014864Y002176D01*
X014971Y002069D01*
X014971Y001963D01*
X014864Y001856D01*
X014651Y001856D01*
X014544Y001963D01*
X014651Y001856D02*
X014544Y001749D01*
X014544Y001642D01*
X014651Y001536D01*
X014864Y001536D01*
X014971Y001642D01*
X014971Y001749D01*
X014864Y001856D01*
D11*
X014990Y002515D02*
X014719Y002515D01*
X014719Y003056D01*
X014990Y003056D01*
X015080Y002966D01*
X015080Y002875D01*
X014990Y002785D01*
X014719Y002785D01*
X014536Y002785D02*
X014176Y002785D01*
X013993Y003056D02*
X013632Y003056D01*
X013812Y003056D02*
X013812Y002515D01*
X013449Y002785D02*
X013449Y002966D01*
X013359Y003056D01*
X013088Y003056D01*
X013088Y002515D01*
X013088Y002695D02*
X013359Y002695D01*
X013449Y002785D01*
X012905Y002785D02*
X012544Y002785D01*
X012544Y002875D02*
X012544Y002515D01*
X012361Y002605D02*
X012361Y002966D01*
X012271Y003056D01*
X012001Y003056D01*
X012001Y002515D01*
X012271Y002515D01*
X012361Y002605D01*
X012544Y002875D02*
X012725Y003056D01*
X012905Y002875D01*
X012905Y002515D01*
X011818Y002515D02*
X011818Y002875D01*
X011637Y003056D01*
X011457Y002875D01*
X011457Y002515D01*
X011457Y002785D02*
X011818Y002785D01*
X011274Y002785D02*
X010913Y002785D01*
X010730Y002785D02*
X010640Y002875D01*
X010459Y002875D01*
X010459Y002695D02*
X010730Y002695D01*
X010730Y002785D02*
X010730Y002515D01*
X010459Y002515D01*
X010369Y002605D01*
X010459Y002695D01*
X010186Y002785D02*
X010186Y002966D01*
X010096Y003056D01*
X009826Y003056D01*
X009826Y002515D01*
X009826Y002695D02*
X010096Y002695D01*
X010186Y002785D01*
X010006Y002695D02*
X010186Y002515D01*
X009642Y002605D02*
X009642Y002785D01*
X009552Y002875D01*
X009372Y002875D01*
X009282Y002785D01*
X009282Y002605D01*
X009372Y002515D01*
X009552Y002515D01*
X009642Y002605D01*
X009099Y002515D02*
X008738Y002515D01*
X008738Y003056D01*
X014990Y002785D02*
X015080Y002695D01*
X015080Y002605D01*
X014990Y002515D01*
X015263Y002515D02*
X015263Y003056D01*
X015534Y003056D01*
X015624Y002966D01*
X015624Y002875D01*
X015534Y002785D01*
X015263Y002785D01*
X015263Y002515D02*
X015534Y002515D01*
X015624Y002605D01*
X015624Y002695D01*
X015534Y002785D01*
X015807Y002966D02*
X015807Y002605D01*
X015897Y002515D01*
X016078Y002515D01*
X016168Y002605D01*
X016168Y002785D01*
X015987Y002785D01*
X015807Y002966D02*
X015897Y003056D01*
X016078Y003056D01*
X016168Y002966D01*
D12*
X022532Y008049D03*
X022532Y009049D03*
X022532Y010049D03*
X022532Y011049D03*
X022532Y012049D03*
X022532Y013049D03*
X022532Y014049D03*
X022532Y015049D03*
X022532Y016049D03*
X022532Y017049D03*
X022532Y018049D03*
X022532Y019049D03*
X022532Y020049D03*
X022532Y021049D03*
X022532Y022049D03*
X022532Y023049D03*
X022532Y024049D03*
X022532Y025049D03*
X022532Y026049D03*
X022532Y027049D03*
X022532Y028049D03*
X022532Y029049D03*
X022532Y030049D03*
X023532Y030049D03*
X023532Y029049D03*
X023532Y028049D03*
X023532Y027049D03*
X023532Y026049D03*
X023532Y025049D03*
X023532Y024049D03*
X023532Y023049D03*
X023532Y022049D03*
X023532Y021049D03*
X023532Y020049D03*
X023532Y019049D03*
X023532Y018049D03*
X023532Y017049D03*
X023532Y016049D03*
X023532Y015049D03*
X023532Y014049D03*
X023532Y013049D03*
X023532Y012049D03*
X023532Y011049D03*
X023532Y010049D03*
X023532Y009049D03*
X023532Y008049D03*
X025370Y010631D03*
X025370Y011631D03*
X025370Y012631D03*
X025370Y013631D03*
X025370Y014631D03*
X025370Y015631D03*
X025370Y016631D03*
X025370Y017631D03*
X025370Y018631D03*
X025370Y019631D03*
X025370Y020631D03*
X025370Y021631D03*
X025370Y022631D03*
X025370Y023631D03*
X025370Y024631D03*
X025370Y025631D03*
X025370Y026631D03*
X025370Y027631D03*
X025370Y028631D03*
X025370Y029631D03*
X004603Y030049D03*
X004603Y029049D03*
X004603Y028049D03*
X004603Y027049D03*
X004603Y026049D03*
X004603Y025049D03*
X004603Y024049D03*
X004603Y023049D03*
X004603Y022049D03*
X004603Y021049D03*
X004603Y020049D03*
X004603Y019049D03*
X004603Y018049D03*
X004603Y017049D03*
X004603Y016049D03*
X004603Y015049D03*
X004603Y014049D03*
X004603Y013049D03*
X004603Y012049D03*
X004603Y011049D03*
X004603Y010049D03*
X004603Y009049D03*
X004603Y008049D03*
X003603Y008049D03*
X003603Y009049D03*
X003603Y010049D03*
X003603Y011049D03*
X003603Y012049D03*
X003603Y013049D03*
X003603Y014049D03*
X003603Y015049D03*
X003603Y016049D03*
X003603Y017049D03*
X003603Y018049D03*
X003603Y019049D03*
X003603Y020049D03*
X003603Y021049D03*
X003603Y022049D03*
X003603Y023049D03*
X003603Y024049D03*
X003603Y025049D03*
X003603Y026049D03*
X003603Y027049D03*
X003603Y028049D03*
X003603Y029049D03*
X003603Y030049D03*
X001284Y029592D03*
X001284Y028592D03*
X001284Y030592D03*
X001276Y013592D03*
X001276Y012592D03*
X001276Y011592D03*
D13*
X020221Y037823D02*
X020221Y038417D01*
X021221Y038417D02*
X021221Y037823D01*
D14*
X001725Y036545D02*
X001727Y036564D01*
X001732Y036583D01*
X001742Y036599D01*
X001754Y036614D01*
X001769Y036626D01*
X001785Y036636D01*
X001804Y036641D01*
X001823Y036643D01*
X001842Y036641D01*
X001861Y036636D01*
X001877Y036626D01*
X001892Y036614D01*
X001904Y036599D01*
X001914Y036583D01*
X001919Y036564D01*
X001921Y036545D01*
X001919Y036526D01*
X001914Y036507D01*
X001904Y036491D01*
X001892Y036476D01*
X001877Y036464D01*
X001861Y036454D01*
X001842Y036449D01*
X001823Y036447D01*
X001804Y036449D01*
X001785Y036454D01*
X001769Y036464D01*
X001754Y036476D01*
X001742Y036491D01*
X001732Y036507D01*
X001727Y036526D01*
X001725Y036545D01*
X006056Y009380D02*
X006058Y009399D01*
X006063Y009418D01*
X006073Y009434D01*
X006085Y009449D01*
X006100Y009461D01*
X006116Y009471D01*
X006135Y009476D01*
X006154Y009478D01*
X006173Y009476D01*
X006192Y009471D01*
X006208Y009461D01*
X006223Y009449D01*
X006235Y009434D01*
X006245Y009418D01*
X006250Y009399D01*
X006252Y009380D01*
X006250Y009361D01*
X006245Y009342D01*
X006235Y009326D01*
X006223Y009311D01*
X006208Y009299D01*
X006192Y009289D01*
X006173Y009284D01*
X006154Y009282D01*
X006135Y009284D01*
X006116Y009289D01*
X006100Y009299D01*
X006085Y009311D01*
X006073Y009326D01*
X006063Y009342D01*
X006058Y009361D01*
X006056Y009380D01*
X019835Y007411D02*
X019837Y007430D01*
X019842Y007449D01*
X019852Y007465D01*
X019864Y007480D01*
X019879Y007492D01*
X019895Y007502D01*
X019914Y007507D01*
X019933Y007509D01*
X019952Y007507D01*
X019971Y007502D01*
X019987Y007492D01*
X020002Y007480D01*
X020014Y007465D01*
X020024Y007449D01*
X020029Y007430D01*
X020031Y007411D01*
X020029Y007392D01*
X020024Y007373D01*
X020014Y007357D01*
X020002Y007342D01*
X019987Y007330D01*
X019971Y007320D01*
X019952Y007315D01*
X019933Y007313D01*
X019914Y007315D01*
X019895Y007320D01*
X019879Y007330D01*
X019864Y007342D01*
X019852Y007357D01*
X019842Y007373D01*
X019837Y007392D01*
X019835Y007411D01*
D15*
X008762Y037811D02*
X008762Y038411D01*
X007762Y038411D02*
X007762Y037811D01*
X006762Y037811D02*
X006762Y038411D01*
X005762Y038411D02*
X005762Y037811D01*
D16*
X005209Y003596D03*
X005209Y001506D03*
D17*
X005315Y003691D03*
X005646Y004246D03*
X005646Y004257D03*
X005646Y004269D03*
X005646Y004281D03*
X005646Y004293D03*
X005646Y004305D03*
X005646Y004317D03*
X005646Y004328D03*
X006331Y004328D03*
X006331Y004151D03*
X007016Y004080D03*
X007016Y004069D03*
X007016Y004057D03*
X007028Y004163D03*
X007028Y004175D03*
X007028Y004187D03*
X007028Y004198D03*
X007028Y004210D03*
X007028Y004222D03*
X007028Y004234D03*
X007028Y004246D03*
X007028Y004257D03*
X007028Y004269D03*
X007028Y004281D03*
X007028Y004293D03*
X007028Y004305D03*
X007028Y004317D03*
X007028Y004328D03*
X007725Y004328D03*
X007725Y004317D03*
X007725Y004305D03*
X007725Y004293D03*
X007725Y004281D03*
X007725Y004269D03*
X007725Y004257D03*
X007725Y004246D03*
X007725Y004234D03*
X007725Y002805D03*
X007725Y002793D03*
X007725Y002781D03*
X007725Y002769D03*
X007725Y002757D03*
X007725Y002746D03*
X007725Y002734D03*
X007725Y002722D03*
X007725Y002710D03*
X007725Y002698D03*
X007725Y002687D03*
X007725Y002675D03*
X007725Y002663D03*
X007725Y002651D03*
X007725Y002639D03*
X007725Y002628D03*
X007725Y002616D03*
X007725Y002604D03*
X007725Y002592D03*
X007725Y002580D03*
X007725Y002569D03*
X007725Y002557D03*
X007725Y002545D03*
X007725Y002533D03*
X007725Y002521D03*
X007725Y002509D03*
X007725Y002498D03*
X007725Y002486D03*
X007725Y002474D03*
X007725Y002462D03*
X007725Y002450D03*
X007725Y002439D03*
X007725Y002427D03*
X007725Y002415D03*
X007725Y002403D03*
X007725Y002391D03*
X007725Y002380D03*
X007725Y002368D03*
X007725Y002356D03*
X007725Y002344D03*
X007725Y002332D03*
X007725Y002320D03*
X007725Y002309D03*
X007725Y002297D03*
X007725Y002285D03*
X007725Y002273D03*
X007725Y002261D03*
X007725Y002250D03*
X007725Y002238D03*
X007725Y002226D03*
X007725Y002214D03*
X007725Y002202D03*
X007725Y001718D03*
X007725Y001706D03*
X007725Y001694D03*
X007725Y001683D03*
X007725Y001671D03*
X007725Y001659D03*
X007725Y001647D03*
X007725Y001635D03*
X007725Y001624D03*
X007725Y001612D03*
X007725Y001600D03*
X007725Y001588D03*
X007725Y001576D03*
X007725Y001565D03*
X007725Y001553D03*
X007725Y001541D03*
X007725Y001529D03*
X007725Y001517D03*
X007725Y001506D03*
D18*
X005274Y001517D03*
X005274Y002214D03*
X005274Y003643D03*
D19*
X005640Y004210D03*
X005640Y004222D03*
X005640Y004234D03*
X006325Y004139D03*
X006325Y004128D03*
X006325Y004116D03*
X006325Y004104D03*
X006325Y004092D03*
X006313Y004069D03*
X006313Y004057D03*
X006313Y004045D03*
X006302Y003998D03*
X006337Y004163D03*
X006337Y004175D03*
X006337Y004187D03*
X006337Y004198D03*
X006337Y004210D03*
X006337Y004222D03*
X006337Y004234D03*
X006337Y004246D03*
X006337Y004257D03*
X006337Y004269D03*
X006337Y004281D03*
X006337Y004293D03*
X006337Y004305D03*
X006337Y004317D03*
X006963Y003797D03*
X006975Y003844D03*
X006987Y003880D03*
X006987Y003891D03*
X006987Y003903D03*
X006998Y003939D03*
X006998Y003950D03*
X006998Y003962D03*
X006998Y003974D03*
X007010Y003986D03*
X007010Y003998D03*
X007010Y004009D03*
X007010Y004021D03*
X007010Y004033D03*
X007010Y004045D03*
X007022Y004092D03*
X007022Y004104D03*
X007022Y004116D03*
X007022Y004128D03*
X007022Y004139D03*
X007022Y004151D03*
X007719Y004151D03*
X007719Y004139D03*
X007719Y004128D03*
X007719Y004116D03*
X007719Y004104D03*
X007719Y004092D03*
X007719Y004080D03*
X007719Y004069D03*
X007719Y004057D03*
X007719Y004163D03*
X007719Y004175D03*
X007719Y004187D03*
X007719Y004198D03*
X007719Y004210D03*
X007719Y004222D03*
X007719Y001730D03*
X005321Y001529D03*
D20*
X005357Y001541D03*
X005357Y003750D03*
X005569Y004057D03*
X006148Y003667D03*
X006160Y003679D03*
X006136Y003643D03*
X007683Y003679D03*
X007683Y003691D03*
X007683Y003702D03*
X007683Y003714D03*
D21*
X007648Y003478D03*
X007648Y003466D03*
X007069Y002592D03*
X007057Y002580D03*
X007046Y002569D03*
X007034Y002557D03*
X007022Y002545D03*
X007648Y001789D03*
X006018Y003502D03*
X006030Y003513D03*
X005392Y003820D03*
X005510Y004009D03*
X005392Y002261D03*
X005392Y001553D03*
D22*
X005416Y001565D03*
X005416Y003880D03*
X005487Y003998D03*
X007624Y003360D03*
X007624Y003348D03*
X007624Y001813D03*
D23*
X007660Y001777D03*
X007117Y002651D03*
X007128Y002663D03*
X007140Y002675D03*
X007152Y002687D03*
X007660Y003525D03*
X007660Y003537D03*
X007660Y003549D03*
X006337Y001647D03*
X006337Y001635D03*
X006337Y001624D03*
X006337Y001612D03*
X006337Y001600D03*
X006337Y001588D03*
X006337Y001576D03*
X006337Y001565D03*
X005380Y002982D03*
X005380Y003797D03*
X005534Y004021D03*
X006065Y003549D03*
D24*
X005445Y003974D03*
X005445Y003986D03*
X005445Y001576D03*
X007595Y001848D03*
X007595Y003218D03*
X007595Y003230D03*
D25*
X007571Y003147D03*
X007571Y003135D03*
X007571Y001883D03*
X006272Y002817D03*
X006248Y002793D03*
X005469Y002309D03*
X005469Y001588D03*
D26*
X005493Y001600D03*
X006225Y002769D03*
X007548Y003053D03*
X007548Y003065D03*
D27*
X007530Y003006D03*
X007530Y001943D03*
X006467Y002108D03*
X005510Y001612D03*
D28*
X005534Y001624D03*
X006396Y002072D03*
X006183Y002734D03*
X006290Y002911D03*
X007506Y002935D03*
X007506Y001978D03*
D29*
X007489Y002013D03*
X007489Y002887D03*
X006296Y002935D03*
X006355Y002049D03*
X005552Y001635D03*
D30*
X005569Y001647D03*
X005569Y002391D03*
X006302Y002958D03*
X007471Y002840D03*
X007471Y002049D03*
D31*
X005859Y001919D03*
X005859Y001907D03*
X005859Y001895D03*
X005859Y001883D03*
X005859Y001872D03*
X005859Y001860D03*
X005859Y001848D03*
X005859Y001836D03*
X005859Y001824D03*
X005859Y001813D03*
X005859Y001801D03*
X005859Y001789D03*
X005859Y001777D03*
X005859Y001765D03*
X005859Y001754D03*
X005859Y001742D03*
X005859Y001730D03*
X005859Y001718D03*
X005859Y001706D03*
X005859Y001694D03*
X005859Y001683D03*
X005859Y001671D03*
X005859Y001659D03*
X005859Y002450D03*
X005859Y002462D03*
X005859Y002474D03*
X005859Y002486D03*
X005859Y002498D03*
X005859Y002509D03*
X005859Y002521D03*
X005859Y002533D03*
X005859Y002545D03*
X005859Y002557D03*
X005859Y002569D03*
X005859Y002580D03*
X005859Y002592D03*
X005859Y002604D03*
D32*
X005339Y002238D03*
X006213Y003773D03*
X006225Y003797D03*
X006237Y003820D03*
X006248Y003844D03*
X006863Y003537D03*
X006863Y003525D03*
X006874Y003549D03*
X006874Y003561D03*
X006886Y003572D03*
X006886Y003584D03*
X006898Y003608D03*
X006851Y003502D03*
X007701Y003832D03*
X007701Y003844D03*
X007701Y003856D03*
X007701Y003868D03*
X007701Y003880D03*
X007701Y001742D03*
X005599Y004104D03*
X005611Y004128D03*
D33*
X005587Y004080D03*
X005575Y004069D03*
X005351Y003738D03*
X005351Y002958D03*
X006166Y003691D03*
X006178Y003702D03*
X006178Y003714D03*
X006189Y003726D03*
X006201Y003750D03*
X007689Y003750D03*
X007689Y003761D03*
X007689Y003738D03*
X007689Y003726D03*
X007689Y001754D03*
D34*
X007672Y001765D03*
X007187Y002734D03*
X007199Y002746D03*
X007211Y002769D03*
X007223Y002781D03*
X007235Y002793D03*
X007672Y003596D03*
X007672Y003608D03*
X007672Y003620D03*
X007672Y003631D03*
X006113Y003608D03*
X006101Y003596D03*
X005557Y004045D03*
X005546Y004033D03*
X005369Y003773D03*
X005369Y002250D03*
D35*
X005404Y003844D03*
X006951Y002474D03*
X006963Y002486D03*
X007636Y001801D03*
X007636Y003407D03*
X007636Y003419D03*
D36*
X007619Y003336D03*
X007619Y003324D03*
X007619Y001824D03*
X005422Y003017D03*
X005422Y003891D03*
D37*
X005433Y003927D03*
X005433Y003939D03*
X005433Y003029D03*
X005433Y002285D03*
X007607Y001836D03*
X007607Y003265D03*
X007607Y003277D03*
X007607Y003289D03*
D38*
X007589Y003206D03*
X007589Y001860D03*
X005451Y002297D03*
D39*
X006266Y002805D03*
X007577Y003159D03*
X007577Y003171D03*
X007577Y001872D03*
D40*
X007559Y001895D03*
X007559Y003100D03*
X006237Y002781D03*
X005481Y002320D03*
D41*
X006278Y002840D03*
X007554Y003076D03*
X007554Y003088D03*
X007554Y001907D03*
D42*
X007542Y001919D03*
X007542Y003041D03*
X006278Y002852D03*
X005498Y002332D03*
D43*
X005994Y001931D03*
X006691Y002332D03*
D44*
X006213Y002757D03*
X006284Y002864D03*
X007536Y003017D03*
X007536Y003029D03*
X007536Y001931D03*
D45*
X006656Y002403D03*
X006054Y001943D03*
D46*
X006101Y001954D03*
X006054Y002651D03*
D47*
X006201Y002746D03*
X006284Y002876D03*
X006284Y002887D03*
X006473Y002120D03*
X005516Y002344D03*
X007524Y001954D03*
X007524Y002982D03*
X007524Y002994D03*
D48*
X006142Y001966D03*
D49*
X006426Y002084D03*
X006485Y002131D03*
X006284Y002899D03*
X005528Y002356D03*
X007512Y001966D03*
X007512Y002946D03*
X007512Y002958D03*
D50*
X006178Y001978D03*
D51*
X006213Y001990D03*
X006307Y003017D03*
X007430Y002131D03*
D52*
X007500Y001990D03*
X007500Y002911D03*
X007500Y002923D03*
X005540Y002368D03*
D53*
X006243Y002002D03*
X006302Y002994D03*
X007447Y002096D03*
D54*
X007494Y002002D03*
X007494Y002899D03*
X006290Y002923D03*
X006172Y002722D03*
X006372Y002061D03*
D55*
X006266Y002013D03*
X006136Y002698D03*
X005581Y002403D03*
X007459Y002072D03*
X007459Y002817D03*
D56*
X007465Y002828D03*
X007465Y002061D03*
X006296Y002025D03*
X006296Y002970D03*
D57*
X006325Y002037D03*
X005557Y002380D03*
X007483Y002025D03*
X007483Y002864D03*
X007483Y002876D03*
D58*
X007477Y002852D03*
X007477Y002037D03*
X006154Y002710D03*
X006296Y002946D03*
D59*
X006296Y002982D03*
X007453Y002084D03*
D60*
X007518Y002970D03*
X006443Y002096D03*
D61*
X006119Y002687D03*
X007441Y002108D03*
D62*
X007435Y002120D03*
X006302Y003006D03*
D63*
X006042Y003265D03*
X006042Y003277D03*
X006998Y002191D03*
X006998Y002179D03*
X006998Y002167D03*
X006998Y002155D03*
X006998Y002143D03*
D64*
X005221Y002202D03*
D65*
X006349Y003443D03*
X006774Y002202D03*
D66*
X006768Y002214D03*
X006367Y003454D03*
D67*
X005309Y003679D03*
X005309Y002935D03*
X005309Y002226D03*
D68*
X006756Y002226D03*
D69*
X006750Y002238D03*
X006384Y003478D03*
D70*
X005935Y002616D03*
X006739Y002250D03*
D71*
X006733Y002261D03*
D72*
X006933Y002450D03*
X006945Y002462D03*
X007630Y003372D03*
X007630Y003383D03*
X007630Y003395D03*
X005410Y003006D03*
X005410Y002273D03*
X005410Y003856D03*
X005410Y003868D03*
D73*
X006727Y002273D03*
D74*
X006715Y002285D03*
D75*
X006709Y002297D03*
D76*
X006703Y002309D03*
D77*
X006697Y002320D03*
D78*
X006685Y002344D03*
X005989Y002628D03*
D79*
X006680Y002356D03*
D80*
X006674Y002368D03*
D81*
X006668Y002380D03*
D82*
X006662Y002391D03*
D83*
X006172Y002415D03*
D84*
X006166Y002427D03*
X006166Y002439D03*
D85*
X006000Y003490D03*
X005398Y003832D03*
X005398Y002994D03*
X006981Y002498D03*
X006993Y002509D03*
X007004Y002521D03*
X007016Y002533D03*
X007642Y003431D03*
X007642Y003443D03*
X007642Y003454D03*
D86*
X007654Y003490D03*
X007654Y003502D03*
X007654Y003513D03*
X007111Y002639D03*
X007099Y002628D03*
X007087Y002616D03*
X007075Y002604D03*
X006048Y003537D03*
X006036Y003525D03*
X005386Y003809D03*
D87*
X006024Y002639D03*
D88*
X006077Y002663D03*
D89*
X006101Y002675D03*
X006302Y003029D03*
D90*
X006071Y003561D03*
X006083Y003572D03*
X006095Y003584D03*
X005374Y003785D03*
X007158Y002698D03*
X007170Y002710D03*
X007181Y002722D03*
X007205Y002757D03*
X007666Y003561D03*
X007666Y003572D03*
X007666Y003584D03*
D91*
X007678Y003643D03*
X007678Y003655D03*
X007678Y003667D03*
X007241Y002805D03*
X006130Y003631D03*
X006119Y003620D03*
X006142Y003655D03*
X005363Y003761D03*
X005363Y002970D03*
D92*
X006278Y002828D03*
X007565Y003112D03*
X007565Y003124D03*
D93*
X005180Y002887D03*
X005180Y003584D03*
D94*
X005227Y002899D03*
D95*
X005262Y002911D03*
X005262Y003631D03*
D96*
X005286Y003655D03*
X005286Y002923D03*
D97*
X005333Y002946D03*
X005333Y003714D03*
X005605Y004116D03*
X005617Y004139D03*
X006266Y003903D03*
X006266Y003891D03*
X006266Y003880D03*
X006254Y003868D03*
X006254Y003856D03*
X006243Y003832D03*
X006278Y003915D03*
X006278Y003927D03*
X006290Y003962D03*
X006939Y003726D03*
X006939Y003714D03*
X006928Y003691D03*
X006928Y003679D03*
X006916Y003655D03*
X006916Y003643D03*
X006904Y003631D03*
X006904Y003620D03*
X006892Y003596D03*
X007707Y003891D03*
X007707Y003903D03*
X007707Y003915D03*
X007707Y003927D03*
X007707Y003939D03*
X007707Y003950D03*
D98*
X005965Y003041D03*
D99*
X005971Y003053D03*
X006136Y003313D03*
D100*
X005977Y003076D03*
X005977Y003065D03*
D101*
X005983Y003088D03*
D102*
X005989Y003100D03*
X005989Y003112D03*
D103*
X005994Y003124D03*
D104*
X006000Y003135D03*
X006000Y003147D03*
D105*
X006006Y003159D03*
D106*
X006012Y003171D03*
X006012Y003183D03*
D107*
X007583Y003183D03*
X007583Y003194D03*
D108*
X006018Y003194D03*
D109*
X006024Y003206D03*
X006024Y003218D03*
D110*
X006030Y003230D03*
X006030Y003242D03*
D111*
X005439Y003950D03*
X005439Y003962D03*
X007601Y003254D03*
X007601Y003242D03*
D112*
X006036Y003254D03*
D113*
X006048Y003289D03*
X006048Y003301D03*
D114*
X005428Y003903D03*
X005428Y003915D03*
X007613Y003313D03*
X007613Y003301D03*
D115*
X006172Y003324D03*
D116*
X006201Y003336D03*
D117*
X006219Y003348D03*
D118*
X006243Y003360D03*
D119*
X006260Y003372D03*
D120*
X006278Y003383D03*
D121*
X006296Y003395D03*
D122*
X006313Y003407D03*
D123*
X006325Y003419D03*
X006337Y003431D03*
D124*
X006372Y003466D03*
D125*
X006195Y003738D03*
X006207Y003761D03*
X006219Y003785D03*
X006231Y003809D03*
X006845Y003490D03*
X006857Y003513D03*
X007695Y003773D03*
X007695Y003785D03*
X007695Y003797D03*
X007695Y003809D03*
X007695Y003820D03*
X005593Y004092D03*
X005345Y003726D03*
D126*
X005233Y003608D03*
D127*
X005250Y003620D03*
D128*
X005298Y003667D03*
D129*
X005327Y003702D03*
X005622Y004151D03*
X005622Y004163D03*
X005634Y004175D03*
X005634Y004187D03*
X005634Y004198D03*
X006307Y004033D03*
X006307Y004021D03*
X006307Y004009D03*
X006296Y003986D03*
X006296Y003974D03*
X006284Y003950D03*
X006284Y003939D03*
X006319Y004080D03*
X006957Y003785D03*
X006957Y003773D03*
X006957Y003761D03*
X006945Y003750D03*
X006945Y003738D03*
X006933Y003702D03*
X006922Y003667D03*
X006969Y003809D03*
X006969Y003820D03*
X006969Y003832D03*
X006981Y003856D03*
X006981Y003868D03*
X006993Y003915D03*
X006993Y003927D03*
X007713Y003962D03*
X007713Y003974D03*
X007713Y003986D03*
X007713Y003998D03*
X007713Y004009D03*
X007713Y004021D03*
X007713Y004033D03*
X007713Y004045D03*
D130*
X005244Y006214D03*
X002410Y005592D03*
X004083Y031943D03*
X002410Y034726D03*
X021800Y006155D03*
X023985Y005750D03*
X023059Y031943D03*
X024063Y034706D03*
D131*
X025839Y038317D03*
X002020Y038317D03*
X002020Y002490D03*
X025839Y002490D03*
D132*
X025150Y003179D03*
X024855Y002490D03*
X025150Y001801D03*
X025839Y001506D03*
X026528Y001801D03*
X026823Y002490D03*
X026528Y003179D03*
X025839Y003474D03*
X003004Y002490D03*
X002709Y003179D03*
X002020Y003474D03*
X001331Y003179D03*
X001036Y002490D03*
X001331Y001801D03*
X002020Y001506D03*
X002709Y001801D03*
X002020Y037332D03*
X002693Y037639D03*
X003004Y038317D03*
X002741Y038970D03*
X002020Y039301D03*
X001331Y039013D03*
X001036Y038317D03*
X001327Y037612D03*
X024855Y038317D03*
X025150Y039006D03*
X025839Y039301D03*
X026528Y039006D03*
X026823Y038317D03*
X026528Y037628D03*
X025839Y037332D03*
X025150Y037628D03*
D133*
X024559Y036840D03*
X023870Y038120D03*
X022886Y039104D03*
X021902Y038120D03*
X020918Y039104D03*
X020918Y037135D03*
X021902Y036151D03*
X020918Y035167D03*
X021902Y034183D03*
X020918Y033198D03*
X020918Y031230D03*
X020918Y029261D03*
X019933Y028277D03*
X018949Y027293D03*
X019933Y026112D03*
X018949Y025128D03*
X019933Y024143D03*
X018949Y023159D03*
X019933Y022175D03*
X018949Y021387D03*
X019933Y020403D03*
X018949Y019419D03*
X019933Y018435D03*
X018949Y017450D03*
X019933Y016466D03*
X018949Y015482D03*
X019933Y014498D03*
X018949Y013513D03*
X019933Y012529D03*
X018949Y011545D03*
X019933Y010561D03*
X018949Y009576D03*
X019933Y008592D03*
X018949Y007608D03*
X019933Y006624D03*
X018949Y005639D03*
X019933Y004655D03*
X018949Y003671D03*
X019933Y002687D03*
X018949Y001702D03*
X017965Y002687D03*
X016981Y003671D03*
X015996Y004655D03*
X016981Y005639D03*
X015996Y006624D03*
X016981Y007608D03*
X015996Y008592D03*
X016981Y009576D03*
X015996Y010561D03*
X016981Y011545D03*
X015996Y012529D03*
X016981Y013513D03*
X015996Y014498D03*
X016981Y015482D03*
X015996Y016466D03*
X016981Y017450D03*
X015996Y018435D03*
X016981Y019419D03*
X015996Y020403D03*
X016981Y021387D03*
X015996Y022175D03*
X016981Y023159D03*
X015996Y024143D03*
X016981Y025128D03*
X015996Y026112D03*
X016981Y027293D03*
X017965Y026112D03*
X017965Y024143D03*
X017965Y022175D03*
X017965Y020403D03*
X017965Y018435D03*
X017965Y016466D03*
X017965Y014498D03*
X017965Y012529D03*
X017965Y010561D03*
X017965Y008592D03*
X017965Y006624D03*
X017965Y004655D03*
X016981Y001702D03*
X015012Y003671D03*
X014028Y004655D03*
X015012Y005639D03*
X014028Y006624D03*
X015012Y007608D03*
X014028Y008592D03*
X015012Y009576D03*
X014028Y010561D03*
X015012Y011545D03*
X014028Y012529D03*
X015012Y013513D03*
X014028Y014498D03*
X015012Y015482D03*
X014028Y016466D03*
X015012Y017450D03*
X014028Y018435D03*
X015012Y019419D03*
X014028Y020403D03*
X015012Y021387D03*
X014028Y022175D03*
X015012Y023159D03*
X014028Y024143D03*
X015012Y025128D03*
X014028Y026112D03*
X015012Y027293D03*
X013044Y027293D03*
X012059Y026112D03*
X013044Y025128D03*
X012059Y024143D03*
X013044Y023159D03*
X012059Y022372D03*
X013044Y021387D03*
X012059Y020403D03*
X013044Y019419D03*
X012059Y018435D03*
X013044Y017450D03*
X012059Y016466D03*
X013044Y015482D03*
X012059Y014498D03*
X013044Y013513D03*
X012059Y012529D03*
X013044Y011545D03*
X012059Y010561D03*
X013044Y009576D03*
X012059Y008592D03*
X013044Y007608D03*
X012059Y006624D03*
X013044Y005639D03*
X012059Y004655D03*
X013044Y003671D03*
X011075Y003671D03*
X010091Y004655D03*
X011075Y005639D03*
X010091Y006624D03*
X011075Y007608D03*
X010091Y008592D03*
X011075Y009576D03*
X010091Y010561D03*
X011075Y011545D03*
X010091Y012529D03*
X011075Y013513D03*
X010091Y014498D03*
X011075Y015482D03*
X010091Y016466D03*
X011075Y017450D03*
X010091Y018435D03*
X011075Y019419D03*
X010091Y020403D03*
X011075Y021387D03*
X010091Y022372D03*
X011075Y023257D03*
X010091Y024340D03*
X011075Y025128D03*
X010091Y026112D03*
X011075Y027293D03*
X010091Y028671D03*
X009107Y029261D03*
X008319Y028671D03*
X007237Y029261D03*
X008319Y030246D03*
X009107Y031230D03*
X008319Y032214D03*
X009107Y033198D03*
X008319Y034183D03*
X009107Y035167D03*
X008319Y036151D03*
X009107Y037135D03*
X010091Y036151D03*
X010091Y034183D03*
X010091Y032214D03*
X010091Y030246D03*
X009107Y027293D03*
X008122Y026309D03*
X009107Y025226D03*
X008122Y024340D03*
X009107Y023356D03*
X008122Y022372D03*
X009107Y021387D03*
X008122Y020403D03*
X009107Y019419D03*
X008122Y018435D03*
X009107Y017450D03*
X008122Y016466D03*
X009107Y015482D03*
X008122Y014498D03*
X009107Y013513D03*
X008122Y012529D03*
X009107Y011545D03*
X008122Y010561D03*
X009107Y009576D03*
X008122Y008592D03*
X009107Y007608D03*
X008122Y006624D03*
X009107Y005639D03*
X008083Y004773D03*
X009107Y003671D03*
X007138Y005639D03*
X006154Y004773D03*
X004185Y004655D03*
X003201Y003671D03*
X004185Y002687D03*
X003201Y007608D03*
X002217Y008592D03*
X001233Y007608D03*
X001233Y009576D03*
X001225Y010714D03*
X002217Y010561D03*
X002138Y014576D03*
X001233Y015482D03*
X002138Y016466D03*
X001233Y017450D03*
X002138Y018435D03*
X001233Y019419D03*
X002138Y020403D03*
X001233Y021387D03*
X002138Y022372D03*
X001233Y023356D03*
X002138Y024340D03*
X001233Y025324D03*
X002138Y026309D03*
X001233Y027293D03*
X002217Y028277D03*
X002217Y030344D03*
X002217Y032214D03*
X001233Y033198D03*
X001233Y036151D03*
X003201Y037135D03*
X004185Y036151D03*
X005170Y035167D03*
X004185Y034183D03*
X005170Y033297D03*
X007256Y033198D03*
X007256Y031230D03*
X005268Y029261D03*
X005268Y027293D03*
X006228Y026309D03*
X007138Y025324D03*
X006154Y024340D03*
X007138Y023356D03*
X006154Y022470D03*
X007138Y021387D03*
X007138Y019419D03*
X006154Y018435D03*
X007138Y017450D03*
X006154Y016466D03*
X007138Y015482D03*
X006154Y014498D03*
X007138Y013513D03*
X006154Y012529D03*
X007138Y011545D03*
X006154Y010561D03*
X007138Y009576D03*
X006154Y008592D03*
X007138Y007608D03*
X005170Y009576D03*
X005170Y011545D03*
X005170Y013513D03*
X005170Y015482D03*
X005170Y019419D03*
X005170Y021387D03*
X005268Y025226D03*
X007212Y027293D03*
X007256Y035167D03*
X007296Y037135D03*
X007138Y039104D03*
X005170Y039104D03*
X004185Y038120D03*
X003398Y039104D03*
X005170Y037135D03*
X009107Y039104D03*
X010091Y038120D03*
X018949Y039104D03*
X018949Y037135D03*
X018949Y035167D03*
X018949Y033198D03*
X018949Y031230D03*
X020918Y027293D03*
X021902Y026112D03*
X020918Y025128D03*
X021902Y024143D03*
X020918Y023159D03*
X021902Y022175D03*
X020918Y021387D03*
X021902Y020403D03*
X020918Y019419D03*
X021902Y018435D03*
X020918Y017450D03*
X021902Y016466D03*
X020918Y015482D03*
X021902Y014498D03*
X020918Y013513D03*
X021902Y012529D03*
X020918Y011545D03*
X021902Y010561D03*
X020918Y009576D03*
X021902Y008592D03*
X020918Y007608D03*
X020918Y003671D03*
X021902Y002687D03*
X020918Y001702D03*
X022886Y001702D03*
X023870Y002687D03*
X022886Y003671D03*
X024855Y003671D03*
X025839Y004655D03*
X026823Y003671D03*
X026823Y005639D03*
X025839Y006624D03*
X024855Y007608D03*
X025839Y008592D03*
X024855Y009576D03*
X024559Y011545D03*
X024559Y013513D03*
X024559Y015482D03*
X024559Y017450D03*
X024559Y019419D03*
X024559Y021387D03*
X024559Y023159D03*
X024559Y025128D03*
X024559Y027293D03*
X024559Y029261D03*
X025839Y030246D03*
X024855Y031230D03*
X025839Y032214D03*
X024855Y033198D03*
X025839Y034183D03*
X026823Y035167D03*
X025839Y036151D03*
X026823Y033198D03*
X026823Y031230D03*
X026823Y029261D03*
X026823Y027293D03*
X026823Y025324D03*
X026823Y023356D03*
X026823Y021387D03*
X026823Y019419D03*
X026823Y017450D03*
X026823Y015482D03*
X026823Y013513D03*
X026823Y011545D03*
X026823Y009576D03*
X026823Y007608D03*
X022886Y037135D03*
D134*
X004775Y001605D02*
X001038Y001605D01*
X001136Y001506D02*
X004775Y001506D01*
X004775Y001408D02*
X001235Y001408D01*
X001333Y001309D02*
X004775Y001309D01*
X004775Y001300D02*
X004857Y001218D01*
X001424Y001218D01*
X000650Y001992D01*
X000650Y038814D01*
X001424Y039588D01*
X010307Y039588D01*
X010307Y028823D01*
X010373Y028665D01*
X010373Y028539D01*
X006671Y028539D01*
X006671Y037001D01*
X006597Y037181D01*
X006459Y037319D01*
X006252Y037526D01*
X006252Y037661D01*
X006262Y037685D01*
X006329Y037522D01*
X006473Y037379D01*
X006660Y037301D01*
X006863Y037301D01*
X007051Y037379D01*
X007194Y037522D01*
X007262Y037685D01*
X007329Y037522D01*
X007473Y037379D01*
X007660Y037301D01*
X007863Y037301D01*
X008051Y037379D01*
X008194Y037522D01*
X008272Y037710D01*
X008272Y038512D01*
X008194Y038700D01*
X008051Y038843D01*
X007863Y038921D01*
X007660Y038921D01*
X007473Y038843D01*
X007329Y038700D01*
X007262Y038537D01*
X007194Y038700D01*
X007051Y038843D01*
X006863Y038921D01*
X006660Y038921D01*
X006473Y038843D01*
X006329Y038700D01*
X006262Y038537D01*
X006194Y038700D01*
X006051Y038843D01*
X005863Y038921D01*
X005660Y038921D01*
X005473Y038843D01*
X005329Y038700D01*
X005252Y038512D01*
X005252Y037710D01*
X005272Y037661D01*
X005272Y037225D01*
X005346Y037045D01*
X005691Y036700D01*
X005691Y028539D01*
X004744Y028539D01*
X004720Y028549D01*
X004890Y028619D01*
X005032Y028762D01*
X005110Y028948D01*
X005110Y029150D01*
X005032Y029336D01*
X004890Y029479D01*
X004704Y029556D01*
X004502Y029556D01*
X004316Y029479D01*
X004173Y029336D01*
X004103Y029166D01*
X004032Y029336D01*
X003890Y029479D01*
X003704Y029556D01*
X003502Y029556D01*
X003316Y029479D01*
X003173Y029336D01*
X003096Y029150D01*
X003096Y028948D01*
X003173Y028762D01*
X003316Y028619D01*
X003485Y028549D01*
X003316Y028479D01*
X003173Y028336D01*
X003096Y028150D01*
X003096Y027948D01*
X003173Y027762D01*
X003316Y027619D01*
X003485Y027549D01*
X003316Y027479D01*
X003173Y027336D01*
X003096Y027150D01*
X003096Y026948D01*
X003173Y026762D01*
X003316Y026619D01*
X003485Y026549D01*
X003316Y026479D01*
X003173Y026336D01*
X003096Y026150D01*
X003096Y025948D01*
X003173Y025762D01*
X003316Y025619D01*
X003485Y025549D01*
X003316Y025479D01*
X003173Y025336D01*
X003096Y025150D01*
X003096Y024948D01*
X003173Y024762D01*
X003316Y024619D01*
X003485Y024549D01*
X003316Y024479D01*
X003173Y024336D01*
X003096Y024150D01*
X003096Y023948D01*
X003173Y023762D01*
X003316Y023619D01*
X003485Y023549D01*
X003316Y023479D01*
X003173Y023336D01*
X003096Y023150D01*
X003096Y022948D01*
X003173Y022762D01*
X003316Y022619D01*
X003485Y022549D01*
X003316Y022479D01*
X003173Y022336D01*
X003096Y022150D01*
X003096Y021948D01*
X003173Y021762D01*
X003316Y021619D01*
X003485Y021549D01*
X003316Y021479D01*
X003173Y021336D01*
X003096Y021150D01*
X003096Y020948D01*
X003173Y020762D01*
X003316Y020619D01*
X003485Y020549D01*
X003316Y020479D01*
X003173Y020336D01*
X003096Y020150D01*
X003096Y019948D01*
X003173Y019762D01*
X003316Y019619D01*
X003485Y019549D01*
X003316Y019479D01*
X003173Y019336D01*
X003096Y019150D01*
X003096Y018948D01*
X003173Y018762D01*
X003316Y018619D01*
X003485Y018549D01*
X003316Y018479D01*
X003173Y018336D01*
X003096Y018150D01*
X003096Y017948D01*
X003173Y017762D01*
X003316Y017619D01*
X003485Y017549D01*
X003316Y017479D01*
X003173Y017336D01*
X003096Y017150D01*
X003096Y016948D01*
X003173Y016762D01*
X003316Y016619D01*
X003485Y016549D01*
X003316Y016479D01*
X003173Y016336D01*
X003096Y016150D01*
X003096Y015948D01*
X003173Y015762D01*
X003316Y015619D01*
X003485Y015549D01*
X003316Y015479D01*
X003173Y015336D01*
X003096Y015150D01*
X003096Y014948D01*
X003173Y014762D01*
X003316Y014619D01*
X003485Y014549D01*
X003316Y014479D01*
X003173Y014336D01*
X003096Y014150D01*
X003096Y013948D01*
X003173Y013762D01*
X003316Y013619D01*
X003485Y013549D01*
X003316Y013479D01*
X003173Y013336D01*
X003096Y013150D01*
X003096Y012948D01*
X003173Y012762D01*
X003316Y012619D01*
X003485Y012549D01*
X003316Y012479D01*
X003173Y012336D01*
X003096Y012150D01*
X003096Y011948D01*
X003173Y011762D01*
X003316Y011619D01*
X003485Y011549D01*
X003316Y011479D01*
X003173Y011336D01*
X003096Y011150D01*
X003096Y010948D01*
X003173Y010762D01*
X003316Y010619D01*
X003485Y010549D01*
X003316Y010479D01*
X003173Y010336D01*
X003096Y010150D01*
X003096Y009948D01*
X003173Y009762D01*
X003316Y009619D01*
X003502Y009542D01*
X003704Y009542D01*
X003890Y009619D01*
X004032Y009762D01*
X004103Y009931D01*
X004173Y009762D01*
X004316Y009619D01*
X004502Y009542D01*
X004704Y009542D01*
X004890Y009619D01*
X005032Y009762D01*
X005110Y009948D01*
X005110Y010150D01*
X005032Y010336D01*
X004890Y010479D01*
X004720Y010549D01*
X004890Y010619D01*
X005032Y010762D01*
X005110Y010948D01*
X005110Y011150D01*
X005032Y011336D01*
X004890Y011479D01*
X004720Y011549D01*
X004890Y011619D01*
X005032Y011762D01*
X005110Y011948D01*
X005110Y012150D01*
X005032Y012336D01*
X004890Y012479D01*
X004720Y012549D01*
X004890Y012619D01*
X005032Y012762D01*
X005110Y012948D01*
X005110Y013150D01*
X005032Y013336D01*
X004890Y013479D01*
X004720Y013549D01*
X004890Y013619D01*
X005032Y013762D01*
X005110Y013948D01*
X005110Y014150D01*
X005032Y014336D01*
X004890Y014479D01*
X004720Y014549D01*
X004890Y014619D01*
X005032Y014762D01*
X005110Y014948D01*
X005110Y015150D01*
X005032Y015336D01*
X004890Y015479D01*
X004720Y015549D01*
X004890Y015619D01*
X005032Y015762D01*
X005110Y015948D01*
X005110Y016150D01*
X005032Y016336D01*
X004890Y016479D01*
X004720Y016549D01*
X004890Y016619D01*
X005032Y016762D01*
X005110Y016948D01*
X005110Y017150D01*
X005032Y017336D01*
X004890Y017479D01*
X004720Y017549D01*
X004890Y017619D01*
X005032Y017762D01*
X005110Y017948D01*
X005110Y018150D01*
X005032Y018336D01*
X004890Y018479D01*
X004720Y018549D01*
X004890Y018619D01*
X005032Y018762D01*
X005110Y018948D01*
X005110Y019150D01*
X005032Y019336D01*
X004890Y019479D01*
X004720Y019549D01*
X004890Y019619D01*
X005032Y019762D01*
X005110Y019948D01*
X005110Y020150D01*
X005032Y020336D01*
X004890Y020479D01*
X004720Y020549D01*
X004890Y020619D01*
X005032Y020762D01*
X005110Y020948D01*
X005110Y021150D01*
X005032Y021336D01*
X004890Y021479D01*
X004720Y021549D01*
X004890Y021619D01*
X005032Y021762D01*
X005110Y021948D01*
X005110Y022150D01*
X005032Y022336D01*
X004890Y022479D01*
X004720Y022549D01*
X004890Y022619D01*
X005032Y022762D01*
X005110Y022948D01*
X005110Y023150D01*
X005032Y023336D01*
X004890Y023479D01*
X004720Y023549D01*
X004890Y023619D01*
X005032Y023762D01*
X005110Y023948D01*
X005110Y024150D01*
X005032Y024336D01*
X004890Y024479D01*
X004720Y024549D01*
X004890Y024619D01*
X005032Y024762D01*
X005110Y024948D01*
X005110Y025150D01*
X005032Y025336D01*
X004890Y025479D01*
X004720Y025549D01*
X004890Y025619D01*
X005032Y025762D01*
X005110Y025948D01*
X005110Y026150D01*
X005032Y026336D01*
X004890Y026479D01*
X004720Y026549D01*
X004890Y026619D01*
X005032Y026762D01*
X005110Y026948D01*
X005110Y027150D01*
X005032Y027336D01*
X004890Y027479D01*
X004720Y027549D01*
X004744Y027559D01*
X018346Y027559D01*
X018526Y027633D01*
X018664Y027771D01*
X018664Y027771D01*
X020506Y029614D01*
X020644Y029752D01*
X020719Y029932D01*
X020719Y030769D01*
X020722Y030777D01*
X020722Y037708D01*
X020728Y037722D01*
X020728Y038517D01*
X020651Y038704D01*
X020508Y038846D01*
X020322Y038923D01*
X020120Y038923D01*
X019934Y038846D01*
X019791Y038704D01*
X019714Y038517D01*
X019714Y037722D01*
X019742Y037655D01*
X019742Y031391D01*
X019739Y031383D01*
X019739Y030232D01*
X018410Y028903D01*
X018410Y039588D01*
X026435Y039588D01*
X027209Y038814D01*
X027209Y001992D01*
X026435Y001218D01*
X016045Y001218D01*
X016088Y001261D01*
X016088Y002083D01*
X016122Y002083D01*
X016146Y002086D01*
X016169Y002091D01*
X016191Y002099D01*
X016212Y002109D01*
X016232Y002121D01*
X016250Y002136D01*
X016267Y002153D01*
X016282Y002171D01*
X016294Y002191D01*
X016305Y002212D01*
X016312Y002235D01*
X016318Y002258D01*
X016320Y002281D01*
X016320Y003289D01*
X016318Y003312D01*
X016312Y003335D01*
X016305Y003358D01*
X016294Y003379D01*
X016282Y003399D01*
X016267Y003417D01*
X016250Y003434D01*
X016232Y003449D01*
X016212Y003461D01*
X016191Y003471D01*
X016169Y003479D01*
X016146Y003485D01*
X016122Y003487D01*
X008504Y003487D01*
X008481Y003485D01*
X008458Y003479D01*
X008436Y003471D01*
X008414Y003461D01*
X008394Y003449D01*
X008376Y003434D01*
X008359Y003417D01*
X008345Y003399D01*
X008332Y003379D01*
X008322Y003358D01*
X008314Y003335D01*
X008313Y003330D01*
X008272Y003330D01*
X008266Y003324D01*
X008266Y004545D01*
X008142Y004668D01*
X004898Y004668D01*
X004775Y004545D01*
X004775Y001300D01*
X004788Y001218D02*
X008150Y001218D01*
X008264Y001332D01*
X008264Y001281D01*
X008260Y001277D01*
X008280Y001348D02*
X008398Y001230D01*
X015918Y001230D01*
X016036Y001348D01*
X016052Y001348D01*
X016052Y001218D01*
X008150Y001218D01*
X008280Y001348D02*
X008280Y003147D01*
X008280Y003159D01*
X008398Y003277D01*
X015918Y003277D01*
X016036Y003159D01*
X016036Y001348D01*
X016088Y001309D02*
X026526Y001309D01*
X026625Y001408D02*
X016088Y001408D01*
X016088Y001506D02*
X026723Y001506D01*
X026822Y001605D02*
X016088Y001605D01*
X016088Y001703D02*
X026920Y001703D01*
X027019Y001802D02*
X016088Y001802D01*
X016088Y001900D02*
X027117Y001900D01*
X027209Y001999D02*
X016088Y001999D01*
X016187Y002097D02*
X027209Y002097D01*
X027209Y002196D02*
X016297Y002196D01*
X016320Y002294D02*
X027209Y002294D01*
X027209Y002393D02*
X016320Y002393D01*
X016320Y002491D02*
X027209Y002491D01*
X027209Y002590D02*
X016320Y002590D01*
X016320Y002688D02*
X027209Y002688D01*
X027209Y002787D02*
X016320Y002787D01*
X016320Y002885D02*
X027209Y002885D01*
X027209Y002984D02*
X016320Y002984D01*
X016320Y003082D02*
X027209Y003082D01*
X027209Y003181D02*
X016320Y003181D01*
X016320Y003279D02*
X027209Y003279D01*
X027209Y003378D02*
X016295Y003378D01*
X016178Y003476D02*
X027209Y003476D01*
X027209Y003575D02*
X008266Y003575D01*
X008266Y003673D02*
X027209Y003673D01*
X027209Y003772D02*
X008266Y003772D01*
X008266Y003870D02*
X027209Y003870D01*
X027209Y003969D02*
X008266Y003969D01*
X008266Y004067D02*
X027209Y004067D01*
X027209Y004166D02*
X008266Y004166D01*
X008266Y004264D02*
X027209Y004264D01*
X027209Y004363D02*
X008266Y004363D01*
X008266Y004461D02*
X027209Y004461D01*
X027209Y004560D02*
X008251Y004560D01*
X008153Y004658D02*
X027209Y004658D01*
X027209Y004757D02*
X000650Y004757D01*
X000650Y004855D02*
X027209Y004855D01*
X027209Y004954D02*
X000650Y004954D01*
X000650Y005052D02*
X027209Y005052D01*
X027209Y005151D02*
X000650Y005151D01*
X000650Y005249D02*
X027209Y005249D01*
X027209Y005348D02*
X000650Y005348D01*
X000650Y005446D02*
X027209Y005446D01*
X027209Y005545D02*
X000650Y005545D01*
X000650Y005643D02*
X027209Y005643D01*
X027209Y005742D02*
X000650Y005742D01*
X000650Y005840D02*
X027209Y005840D01*
X027209Y005939D02*
X000650Y005939D01*
X000650Y006037D02*
X027209Y006037D01*
X027209Y006136D02*
X000650Y006136D01*
X000650Y006234D02*
X027209Y006234D01*
X027209Y006333D02*
X000650Y006333D01*
X000650Y006431D02*
X027209Y006431D01*
X027209Y006530D02*
X000650Y006530D01*
X000650Y006628D02*
X027209Y006628D01*
X027209Y006727D02*
X000650Y006727D01*
X000650Y006825D02*
X019737Y006825D01*
X019712Y006828D02*
X020009Y006792D01*
X020288Y006898D01*
X020485Y007121D01*
X027209Y007121D01*
X027209Y007219D02*
X020510Y007219D01*
X020485Y007121D02*
X020557Y007411D01*
X020485Y007701D01*
X020288Y007924D01*
X020288Y007924D01*
X020009Y008030D01*
X020009Y008030D01*
X019712Y007994D01*
X019467Y007824D01*
X019328Y007560D01*
X019328Y007262D01*
X019467Y006998D01*
X019467Y006998D01*
X019712Y006828D01*
X019712Y006828D01*
X019574Y006924D02*
X000650Y006924D01*
X000650Y007022D02*
X019454Y007022D01*
X019467Y006998D02*
X019467Y006998D01*
X019402Y007121D02*
X000650Y007121D01*
X000650Y007219D02*
X019351Y007219D01*
X019328Y007262D02*
X019328Y007262D01*
X019328Y007318D02*
X000650Y007318D01*
X000650Y007416D02*
X019328Y007416D01*
X019328Y007515D02*
X000650Y007515D01*
X000650Y007613D02*
X019356Y007613D01*
X019408Y007712D02*
X000650Y007712D01*
X000650Y007810D02*
X019459Y007810D01*
X019467Y007824D02*
X019467Y007824D01*
X019467Y007824D01*
X019589Y007909D02*
X000650Y007909D01*
X000650Y008007D02*
X019821Y008007D01*
X019712Y007994D02*
X019712Y007994D01*
X020069Y008007D02*
X022025Y008007D01*
X022025Y007948D02*
X022102Y007762D01*
X022245Y007619D01*
X022431Y007542D01*
X022633Y007542D01*
X022819Y007619D01*
X022962Y007762D01*
X023032Y007931D01*
X023102Y007762D01*
X023245Y007619D01*
X023431Y007542D01*
X023633Y007542D01*
X023819Y007619D01*
X023962Y007762D01*
X024039Y007948D01*
X024039Y008150D01*
X023962Y008336D01*
X023819Y008479D01*
X023649Y008549D01*
X023819Y008619D01*
X023962Y008762D01*
X024039Y008948D01*
X024039Y009150D01*
X023962Y009336D01*
X023819Y009479D01*
X023649Y009549D01*
X023819Y009619D01*
X023962Y009762D01*
X024039Y009948D01*
X024039Y010150D01*
X023962Y010336D01*
X023819Y010479D01*
X023649Y010549D01*
X023819Y010619D01*
X023962Y010762D01*
X024039Y010948D01*
X024039Y011150D01*
X023962Y011336D01*
X023819Y011479D01*
X023649Y011549D01*
X023819Y011619D01*
X023962Y011762D01*
X024039Y011948D01*
X024039Y012150D01*
X023962Y012336D01*
X023819Y012479D01*
X023649Y012549D01*
X023819Y012619D01*
X023962Y012762D01*
X024039Y012948D01*
X024039Y013150D01*
X023962Y013336D01*
X023819Y013479D01*
X023649Y013549D01*
X023819Y013619D01*
X023962Y013762D01*
X024039Y013948D01*
X024039Y014150D01*
X023962Y014336D01*
X023819Y014479D01*
X023649Y014549D01*
X023819Y014619D01*
X023962Y014762D01*
X024039Y014948D01*
X024039Y015150D01*
X023962Y015336D01*
X023819Y015479D01*
X023649Y015549D01*
X023819Y015619D01*
X023962Y015762D01*
X024039Y015948D01*
X024039Y016150D01*
X023962Y016336D01*
X023819Y016479D01*
X023649Y016549D01*
X023819Y016619D01*
X023962Y016762D01*
X024039Y016948D01*
X024039Y017150D01*
X023962Y017336D01*
X023819Y017479D01*
X023649Y017549D01*
X023819Y017619D01*
X023962Y017762D01*
X024039Y017948D01*
X024039Y018150D01*
X023962Y018336D01*
X023819Y018479D01*
X023649Y018549D01*
X023819Y018619D01*
X023962Y018762D01*
X024039Y018948D01*
X024039Y019150D01*
X023962Y019336D01*
X023819Y019479D01*
X023649Y019549D01*
X023819Y019619D01*
X023962Y019762D01*
X024039Y019948D01*
X024039Y020150D01*
X023962Y020336D01*
X023819Y020479D01*
X023649Y020549D01*
X023819Y020619D01*
X023962Y020762D01*
X024039Y020948D01*
X024039Y021150D01*
X023962Y021336D01*
X023819Y021479D01*
X023649Y021549D01*
X023819Y021619D01*
X023962Y021762D01*
X024039Y021948D01*
X024039Y022150D01*
X023962Y022336D01*
X023819Y022479D01*
X023649Y022549D01*
X023819Y022619D01*
X023962Y022762D01*
X024039Y022948D01*
X024039Y023150D01*
X023962Y023336D01*
X023819Y023479D01*
X023649Y023549D01*
X023819Y023619D01*
X023962Y023762D01*
X024039Y023948D01*
X024039Y024150D01*
X023962Y024336D01*
X023819Y024479D01*
X023649Y024549D01*
X023819Y024619D01*
X023962Y024762D01*
X024039Y024948D01*
X024039Y025150D01*
X023962Y025336D01*
X023819Y025479D01*
X023649Y025549D01*
X023819Y025619D01*
X023962Y025762D01*
X024039Y025948D01*
X024039Y026150D01*
X023962Y026336D01*
X023819Y026479D01*
X023649Y026549D01*
X023819Y026619D01*
X023962Y026762D01*
X024039Y026948D01*
X024039Y027150D01*
X023962Y027336D01*
X023819Y027479D01*
X023649Y027549D01*
X023819Y027619D01*
X023962Y027762D01*
X024039Y027948D01*
X024039Y028150D01*
X023962Y028336D01*
X023819Y028479D01*
X023649Y028549D01*
X023819Y028619D01*
X023962Y028762D01*
X024039Y028948D01*
X024039Y029150D01*
X023962Y029336D01*
X023819Y029479D01*
X023633Y029556D01*
X023431Y029556D01*
X023245Y029479D01*
X023102Y029336D01*
X023032Y029166D01*
X022962Y029336D01*
X022819Y029479D01*
X022633Y029556D01*
X022431Y029556D01*
X022245Y029479D01*
X022102Y029336D01*
X022025Y029150D01*
X022025Y028948D01*
X022102Y028762D01*
X022245Y028619D01*
X022415Y028549D01*
X022245Y028479D01*
X022102Y028336D01*
X022025Y028150D01*
X022025Y027948D01*
X022102Y027762D01*
X022245Y027619D01*
X022415Y027549D01*
X022245Y027479D01*
X022102Y027336D01*
X022025Y027150D01*
X022025Y026948D01*
X022102Y026762D01*
X022245Y026619D01*
X022415Y026549D01*
X022245Y026479D01*
X022102Y026336D01*
X022025Y026150D01*
X022025Y025948D01*
X022102Y025762D01*
X022245Y025619D01*
X022415Y025549D01*
X022245Y025479D01*
X022102Y025336D01*
X022025Y025150D01*
X022025Y024948D01*
X022102Y024762D01*
X022245Y024619D01*
X022415Y024549D01*
X022245Y024479D01*
X022102Y024336D01*
X022025Y024150D01*
X022025Y023948D01*
X022102Y023762D01*
X022245Y023619D01*
X022415Y023549D01*
X022245Y023479D01*
X022102Y023336D01*
X022025Y023150D01*
X022025Y022948D01*
X022102Y022762D01*
X022245Y022619D01*
X022415Y022549D01*
X022245Y022479D01*
X022102Y022336D01*
X022025Y022150D01*
X022025Y021948D01*
X022102Y021762D01*
X022245Y021619D01*
X022415Y021549D01*
X022245Y021479D01*
X022102Y021336D01*
X022025Y021150D01*
X022025Y020948D01*
X022102Y020762D01*
X022245Y020619D01*
X022415Y020549D01*
X022245Y020479D01*
X022102Y020336D01*
X022025Y020150D01*
X022025Y019948D01*
X022102Y019762D01*
X022245Y019619D01*
X022415Y019549D01*
X022245Y019479D01*
X022102Y019336D01*
X022025Y019150D01*
X022025Y018948D01*
X022102Y018762D01*
X022245Y018619D01*
X022415Y018549D01*
X022245Y018479D01*
X022102Y018336D01*
X022025Y018150D01*
X022025Y017948D01*
X022102Y017762D01*
X022245Y017619D01*
X022415Y017549D01*
X022245Y017479D01*
X022102Y017336D01*
X022025Y017150D01*
X022025Y016948D01*
X022102Y016762D01*
X022245Y016619D01*
X022415Y016549D01*
X022245Y016479D01*
X022102Y016336D01*
X022025Y016150D01*
X022025Y015948D01*
X022102Y015762D01*
X022245Y015619D01*
X022415Y015549D01*
X022245Y015479D01*
X022102Y015336D01*
X022025Y015150D01*
X022025Y014948D01*
X022102Y014762D01*
X022245Y014619D01*
X022415Y014549D01*
X022245Y014479D01*
X022102Y014336D01*
X022025Y014150D01*
X022025Y013948D01*
X022102Y013762D01*
X022245Y013619D01*
X022415Y013549D01*
X022245Y013479D01*
X022102Y013336D01*
X022025Y013150D01*
X022025Y012948D01*
X022102Y012762D01*
X022245Y012619D01*
X022415Y012549D01*
X022245Y012479D01*
X022102Y012336D01*
X022025Y012150D01*
X022025Y011948D01*
X022102Y011762D01*
X022245Y011619D01*
X022415Y011549D01*
X022245Y011479D01*
X022102Y011336D01*
X022025Y011150D01*
X022025Y010948D01*
X022102Y010762D01*
X022245Y010619D01*
X022415Y010549D01*
X022245Y010479D01*
X022102Y010336D01*
X022025Y010150D01*
X022025Y009948D01*
X022102Y009762D01*
X022245Y009619D01*
X022415Y009549D01*
X022245Y009479D01*
X022102Y009336D01*
X022025Y009150D01*
X022025Y008948D01*
X022102Y008762D01*
X022245Y008619D01*
X022415Y008549D01*
X022245Y008479D01*
X022102Y008336D01*
X022025Y008150D01*
X022025Y007948D01*
X022041Y007909D02*
X020301Y007909D01*
X020389Y007810D02*
X022082Y007810D01*
X022152Y007712D02*
X020476Y007712D01*
X020485Y007701D02*
X020485Y007701D01*
X020507Y007613D02*
X022259Y007613D01*
X022025Y008106D02*
X000650Y008106D01*
X000650Y008204D02*
X022048Y008204D01*
X022088Y008303D02*
X000650Y008303D01*
X000650Y008401D02*
X022167Y008401D01*
X022296Y008500D02*
X000650Y008500D01*
X000650Y008598D02*
X022295Y008598D01*
X022167Y008697D02*
X000650Y008697D01*
X000650Y008795D02*
X005945Y008795D01*
X005933Y008797D02*
X006229Y008761D01*
X006508Y008866D01*
X006706Y009090D01*
X006777Y009380D01*
X006706Y009669D01*
X006706Y009669D01*
X006508Y009893D01*
X006229Y009998D01*
X005933Y009962D01*
X005933Y009962D01*
X005687Y009793D01*
X005549Y009529D01*
X005549Y009230D01*
X005687Y008966D01*
X005933Y008797D01*
X005933Y008797D01*
X005792Y008894D02*
X000650Y008894D01*
X000650Y008992D02*
X005674Y008992D01*
X005687Y008966D02*
X005687Y008966D01*
X005622Y009091D02*
X000650Y009091D01*
X000650Y009189D02*
X005570Y009189D01*
X005549Y009288D02*
X000650Y009288D01*
X000650Y009386D02*
X005549Y009386D01*
X005549Y009485D02*
X000650Y009485D01*
X000650Y009583D02*
X003403Y009583D01*
X003253Y009682D02*
X000650Y009682D01*
X000650Y009780D02*
X003165Y009780D01*
X003125Y009879D02*
X000650Y009879D01*
X000650Y009977D02*
X003096Y009977D01*
X003096Y010076D02*
X000650Y010076D01*
X000650Y010174D02*
X003106Y010174D01*
X003147Y010273D02*
X000650Y010273D01*
X000650Y010371D02*
X003208Y010371D01*
X003307Y010470D02*
X000650Y010470D01*
X000650Y010568D02*
X003439Y010568D01*
X003268Y010667D02*
X000650Y010667D01*
X000650Y010765D02*
X003172Y010765D01*
X003131Y010864D02*
X000650Y010864D01*
X000650Y010962D02*
X003096Y010962D01*
X003096Y011061D02*
X000650Y011061D01*
X000650Y011159D02*
X000997Y011159D01*
X000989Y011162D02*
X001175Y011085D01*
X001377Y011085D01*
X001563Y011162D01*
X001706Y011305D01*
X001783Y011491D01*
X001783Y011693D01*
X001706Y011879D01*
X001563Y012022D01*
X001377Y012099D01*
X001175Y012099D01*
X000989Y012022D01*
X000846Y011879D01*
X000769Y011693D01*
X000769Y011491D01*
X000846Y011305D01*
X000989Y011162D01*
X000894Y011258D02*
X000650Y011258D01*
X000650Y011356D02*
X000825Y011356D01*
X000784Y011455D02*
X000650Y011455D01*
X000650Y011553D02*
X000769Y011553D01*
X000769Y011652D02*
X000650Y011652D01*
X000650Y011750D02*
X000793Y011750D01*
X000834Y011849D02*
X000650Y011849D01*
X000650Y011947D02*
X000914Y011947D01*
X001046Y012046D02*
X000650Y012046D01*
X000650Y012144D02*
X003096Y012144D01*
X003096Y012046D02*
X001506Y012046D01*
X001638Y011947D02*
X003096Y011947D01*
X003137Y011849D02*
X001718Y011849D01*
X001759Y011750D02*
X003185Y011750D01*
X003283Y011652D02*
X001783Y011652D01*
X001783Y011553D02*
X003475Y011553D01*
X003292Y011455D02*
X001768Y011455D01*
X001727Y011356D02*
X003193Y011356D01*
X003141Y011258D02*
X001658Y011258D01*
X001555Y011159D02*
X003100Y011159D01*
X003134Y012243D02*
X000650Y012243D01*
X000650Y012341D02*
X003178Y012341D01*
X003277Y012440D02*
X000650Y012440D01*
X000650Y012538D02*
X003460Y012538D01*
X003298Y012637D02*
X000650Y012637D01*
X000650Y012735D02*
X003200Y012735D01*
X003143Y012834D02*
X000650Y012834D01*
X000650Y012932D02*
X003102Y012932D01*
X003096Y013031D02*
X000650Y013031D01*
X000650Y013129D02*
X001069Y013129D01*
X000989Y013162D02*
X001175Y013085D01*
X001377Y013085D01*
X001563Y013162D01*
X001706Y013305D01*
X001783Y013491D01*
X001783Y013693D01*
X001706Y013879D01*
X001563Y014022D01*
X001377Y014099D01*
X001175Y014099D01*
X000989Y014022D01*
X000846Y013879D01*
X000769Y013693D01*
X000769Y013491D01*
X000846Y013305D01*
X000989Y013162D01*
X000924Y013228D02*
X000650Y013228D01*
X000650Y013326D02*
X000838Y013326D01*
X000797Y013425D02*
X000650Y013425D01*
X000650Y013523D02*
X000769Y013523D01*
X000769Y013622D02*
X000650Y013622D01*
X000650Y013720D02*
X000780Y013720D01*
X000821Y013819D02*
X000650Y013819D01*
X000650Y013917D02*
X000884Y013917D01*
X000983Y014016D02*
X000650Y014016D01*
X000650Y014114D02*
X003096Y014114D01*
X003096Y014016D02*
X001569Y014016D01*
X001668Y013917D02*
X003109Y013917D01*
X003149Y013819D02*
X001731Y013819D01*
X001772Y013720D02*
X003215Y013720D01*
X003313Y013622D02*
X001783Y013622D01*
X001783Y013523D02*
X003423Y013523D01*
X003262Y013425D02*
X001755Y013425D01*
X001714Y013326D02*
X003169Y013326D01*
X003128Y013228D02*
X001628Y013228D01*
X001483Y013129D02*
X003096Y013129D01*
X003122Y014213D02*
X000650Y014213D01*
X000650Y014311D02*
X003163Y014311D01*
X003247Y014410D02*
X000650Y014410D01*
X000650Y014508D02*
X003387Y014508D01*
X003346Y014607D02*
X000650Y014607D01*
X000650Y014705D02*
X003230Y014705D01*
X003156Y014804D02*
X000650Y014804D01*
X000650Y014902D02*
X003115Y014902D01*
X003096Y015001D02*
X000650Y015001D01*
X000650Y015099D02*
X003096Y015099D01*
X003116Y015198D02*
X000650Y015198D01*
X000650Y015296D02*
X003157Y015296D01*
X003232Y015395D02*
X000650Y015395D01*
X000650Y015493D02*
X003351Y015493D01*
X003382Y015592D02*
X000650Y015592D01*
X000650Y015690D02*
X003245Y015690D01*
X003162Y015789D02*
X000650Y015789D01*
X000650Y015887D02*
X003121Y015887D01*
X003096Y015986D02*
X000650Y015986D01*
X000650Y016084D02*
X003096Y016084D01*
X003110Y016183D02*
X000650Y016183D01*
X000650Y016281D02*
X003150Y016281D01*
X003217Y016380D02*
X000650Y016380D01*
X000650Y016478D02*
X003315Y016478D01*
X003418Y016577D02*
X000650Y016577D01*
X000650Y016675D02*
X003260Y016675D01*
X003168Y016774D02*
X000650Y016774D01*
X000650Y016872D02*
X003127Y016872D01*
X003096Y016971D02*
X000650Y016971D01*
X000650Y017069D02*
X003096Y017069D01*
X003103Y017168D02*
X000650Y017168D01*
X000650Y017266D02*
X003144Y017266D01*
X003202Y017365D02*
X000650Y017365D01*
X000650Y017463D02*
X003300Y017463D01*
X003454Y017562D02*
X000650Y017562D01*
X000650Y017660D02*
X003275Y017660D01*
X003176Y017759D02*
X000650Y017759D01*
X000650Y017857D02*
X003134Y017857D01*
X003096Y017956D02*
X000650Y017956D01*
X000650Y018054D02*
X003096Y018054D01*
X003097Y018153D02*
X000650Y018153D01*
X000650Y018251D02*
X003138Y018251D01*
X003187Y018350D02*
X000650Y018350D01*
X000650Y018448D02*
X003285Y018448D01*
X003290Y018645D02*
X000650Y018645D01*
X000650Y018547D02*
X003480Y018547D01*
X003191Y018744D02*
X000650Y018744D01*
X000650Y018842D02*
X003140Y018842D01*
X003099Y018941D02*
X000650Y018941D01*
X000650Y019039D02*
X003096Y019039D01*
X003096Y019138D02*
X000650Y019138D01*
X000650Y019236D02*
X003132Y019236D01*
X003173Y019335D02*
X000650Y019335D01*
X000650Y019433D02*
X003270Y019433D01*
X003444Y019532D02*
X000650Y019532D01*
X000650Y019630D02*
X003305Y019630D01*
X003206Y019729D02*
X000650Y019729D01*
X000650Y019827D02*
X003146Y019827D01*
X003105Y019926D02*
X000650Y019926D01*
X000650Y020024D02*
X003096Y020024D01*
X003096Y020123D02*
X000650Y020123D01*
X000650Y020221D02*
X003126Y020221D01*
X003166Y020320D02*
X000650Y020320D01*
X000650Y020418D02*
X003255Y020418D01*
X003408Y020517D02*
X000650Y020517D01*
X000650Y020615D02*
X003325Y020615D01*
X003221Y020714D02*
X000650Y020714D01*
X000650Y020812D02*
X003152Y020812D01*
X003111Y020911D02*
X000650Y020911D01*
X000650Y021009D02*
X003096Y021009D01*
X003096Y021108D02*
X000650Y021108D01*
X000650Y021206D02*
X003119Y021206D01*
X003160Y021305D02*
X000650Y021305D01*
X000650Y021403D02*
X003240Y021403D01*
X003372Y021502D02*
X000650Y021502D01*
X000650Y021600D02*
X003361Y021600D01*
X003236Y021699D02*
X000650Y021699D01*
X000650Y021797D02*
X003158Y021797D01*
X003118Y021896D02*
X000650Y021896D01*
X000650Y021994D02*
X003096Y021994D01*
X003096Y022093D02*
X000650Y022093D01*
X000650Y022191D02*
X003113Y022191D01*
X003154Y022290D02*
X000650Y022290D01*
X000650Y022388D02*
X003225Y022388D01*
X003335Y022487D02*
X000650Y022487D01*
X000650Y022585D02*
X003398Y022585D01*
X003251Y022684D02*
X000650Y022684D01*
X000650Y022782D02*
X003165Y022782D01*
X003124Y022881D02*
X000650Y022881D01*
X000650Y022979D02*
X003096Y022979D01*
X003096Y023078D02*
X000650Y023078D01*
X000650Y023176D02*
X003107Y023176D01*
X003148Y023275D02*
X000650Y023275D01*
X000650Y023373D02*
X003210Y023373D01*
X003309Y023472D02*
X000650Y023472D01*
X000650Y023570D02*
X003434Y023570D01*
X003266Y023669D02*
X000650Y023669D01*
X000650Y023767D02*
X003171Y023767D01*
X003130Y023866D02*
X000650Y023866D01*
X000650Y023964D02*
X003096Y023964D01*
X003096Y024063D02*
X000650Y024063D01*
X000650Y024161D02*
X003101Y024161D01*
X003141Y024260D02*
X000650Y024260D01*
X000650Y024358D02*
X003195Y024358D01*
X003294Y024457D02*
X000650Y024457D01*
X000650Y024555D02*
X003470Y024555D01*
X003281Y024654D02*
X000650Y024654D01*
X000650Y024752D02*
X003183Y024752D01*
X003136Y024851D02*
X000650Y024851D01*
X000650Y024949D02*
X003096Y024949D01*
X003096Y025048D02*
X000650Y025048D01*
X000650Y025146D02*
X003096Y025146D01*
X003135Y025245D02*
X000650Y025245D01*
X000650Y025343D02*
X003180Y025343D01*
X003279Y025442D02*
X000650Y025442D01*
X000650Y025540D02*
X003465Y025540D01*
X003296Y025639D02*
X000650Y025639D01*
X000650Y025737D02*
X003198Y025737D01*
X003142Y025836D02*
X000650Y025836D01*
X000650Y025934D02*
X003102Y025934D01*
X003096Y026033D02*
X000650Y026033D01*
X000650Y026131D02*
X003096Y026131D01*
X003129Y026230D02*
X000650Y026230D01*
X000650Y026328D02*
X003170Y026328D01*
X003264Y026427D02*
X000650Y026427D01*
X000650Y026525D02*
X003428Y026525D01*
X003311Y026624D02*
X000650Y026624D01*
X000650Y026722D02*
X003213Y026722D01*
X003149Y026821D02*
X000650Y026821D01*
X000650Y026919D02*
X003108Y026919D01*
X003096Y027018D02*
X000650Y027018D01*
X000650Y027116D02*
X003096Y027116D01*
X003123Y027215D02*
X000650Y027215D01*
X000650Y027313D02*
X003164Y027313D01*
X003249Y027412D02*
X000650Y027412D01*
X000650Y027510D02*
X003392Y027510D01*
X003341Y027609D02*
X000650Y027609D01*
X000650Y027707D02*
X003228Y027707D01*
X003155Y027806D02*
X000650Y027806D01*
X000650Y027904D02*
X003114Y027904D01*
X003096Y028003D02*
X000650Y028003D01*
X000650Y028101D02*
X003096Y028101D01*
X003117Y028200D02*
X000650Y028200D01*
X000650Y028298D02*
X003157Y028298D01*
X003234Y028397D02*
X000650Y028397D01*
X000650Y028495D02*
X003356Y028495D01*
X003377Y028594D02*
X000650Y028594D01*
X000650Y028692D02*
X003243Y028692D01*
X003161Y028791D02*
X000650Y028791D01*
X000650Y028889D02*
X003120Y028889D01*
X003096Y028988D02*
X000650Y028988D01*
X000650Y029086D02*
X001181Y029086D01*
X001183Y029085D02*
X001385Y029085D01*
X001571Y029162D01*
X001714Y029305D01*
X001791Y029491D01*
X001791Y029693D01*
X001714Y029879D01*
X001571Y030022D01*
X001401Y030092D01*
X001571Y030162D01*
X001714Y030305D01*
X001791Y030491D01*
X001791Y030693D01*
X001714Y030879D01*
X001571Y031022D01*
X001385Y031099D01*
X001183Y031099D01*
X000997Y031022D01*
X000854Y030879D01*
X000777Y030693D01*
X000777Y030491D01*
X000854Y030305D01*
X000997Y030162D01*
X001167Y030092D01*
X000997Y030022D01*
X000854Y029879D01*
X000777Y029693D01*
X000777Y029491D01*
X000854Y029305D01*
X000997Y029162D01*
X001183Y029085D01*
X001387Y029086D02*
X003096Y029086D01*
X003110Y029185D02*
X001593Y029185D01*
X001692Y029283D02*
X003151Y029283D01*
X003219Y029382D02*
X001745Y029382D01*
X001786Y029480D02*
X003320Y029480D01*
X003886Y029480D02*
X004320Y029480D01*
X004219Y029382D02*
X003987Y029382D01*
X004054Y029283D02*
X004151Y029283D01*
X004110Y029185D02*
X004095Y029185D01*
X004886Y029480D02*
X005691Y029480D01*
X005691Y029382D02*
X004987Y029382D01*
X005054Y029283D02*
X005691Y029283D01*
X005691Y029185D02*
X005095Y029185D01*
X005110Y029086D02*
X005691Y029086D01*
X005691Y028988D02*
X005110Y028988D01*
X005085Y028889D02*
X005691Y028889D01*
X005691Y028791D02*
X005044Y028791D01*
X004963Y028692D02*
X005691Y028692D01*
X005691Y028594D02*
X004828Y028594D01*
X004813Y027510D02*
X022321Y027510D01*
X022270Y027609D02*
X018466Y027609D01*
X018600Y027707D02*
X022157Y027707D01*
X022084Y027806D02*
X018698Y027806D01*
X018797Y027904D02*
X022043Y027904D01*
X022025Y028003D02*
X018895Y028003D01*
X018994Y028101D02*
X022025Y028101D01*
X022046Y028200D02*
X019092Y028200D01*
X019191Y028298D02*
X022087Y028298D01*
X022163Y028397D02*
X019289Y028397D01*
X019388Y028495D02*
X022285Y028495D01*
X022306Y028594D02*
X019486Y028594D01*
X019585Y028692D02*
X022172Y028692D01*
X022090Y028791D02*
X019683Y028791D01*
X019782Y028889D02*
X022049Y028889D01*
X022025Y028988D02*
X019880Y028988D01*
X019979Y029086D02*
X022025Y029086D01*
X022040Y029185D02*
X020077Y029185D01*
X020176Y029283D02*
X022080Y029283D01*
X022148Y029382D02*
X020274Y029382D01*
X020373Y029480D02*
X022249Y029480D01*
X022815Y029480D02*
X023249Y029480D01*
X023148Y029382D02*
X022916Y029382D01*
X022983Y029283D02*
X023080Y029283D01*
X023040Y029185D02*
X023024Y029185D01*
X023815Y029480D02*
X027209Y029480D01*
X027209Y029382D02*
X023916Y029382D01*
X023983Y029283D02*
X027209Y029283D01*
X027209Y029185D02*
X024024Y029185D01*
X024039Y029086D02*
X025144Y029086D01*
X025083Y029061D02*
X024941Y028919D01*
X024864Y028732D01*
X024864Y028531D01*
X024941Y028344D01*
X025083Y028202D01*
X025253Y028131D01*
X025083Y028061D01*
X024941Y027919D01*
X024864Y027732D01*
X024864Y027531D01*
X024941Y027344D01*
X025083Y027202D01*
X025253Y027131D01*
X025083Y027061D01*
X024941Y026919D01*
X024027Y026919D01*
X024039Y027018D02*
X025040Y027018D01*
X024941Y026919D02*
X024864Y026732D01*
X024864Y026531D01*
X024941Y026344D01*
X025083Y026202D01*
X025253Y026131D01*
X025083Y026061D01*
X024941Y025919D01*
X024864Y025732D01*
X024864Y025531D01*
X024941Y025344D01*
X025083Y025202D01*
X025253Y025131D01*
X025083Y025061D01*
X024941Y024919D01*
X024864Y024732D01*
X024864Y024531D01*
X024941Y024344D01*
X025083Y024202D01*
X025253Y024131D01*
X025083Y024061D01*
X024941Y023919D01*
X024864Y023732D01*
X024864Y023531D01*
X024941Y023344D01*
X025083Y023202D01*
X025253Y023131D01*
X025083Y023061D01*
X024941Y022919D01*
X024864Y022732D01*
X024864Y022531D01*
X024941Y022344D01*
X025083Y022202D01*
X025270Y022125D01*
X025471Y022125D01*
X025658Y022202D01*
X025800Y022344D01*
X025877Y022531D01*
X025877Y022732D01*
X025800Y022919D01*
X025658Y023061D01*
X025488Y023131D01*
X025658Y023202D01*
X025800Y023344D01*
X025877Y023531D01*
X025877Y023732D01*
X025800Y023919D01*
X025658Y024061D01*
X025488Y024131D01*
X025658Y024202D01*
X025800Y024344D01*
X025877Y024531D01*
X025877Y024732D01*
X025800Y024919D01*
X025658Y025061D01*
X025488Y025131D01*
X025658Y025202D01*
X025800Y025344D01*
X025877Y025531D01*
X025877Y025732D01*
X025800Y025919D01*
X025658Y026061D01*
X025488Y026131D01*
X025658Y026202D01*
X025800Y026344D01*
X025877Y026531D01*
X025877Y026732D01*
X025800Y026919D01*
X025658Y027061D01*
X025488Y027131D01*
X025658Y027202D01*
X025800Y027344D01*
X025877Y027531D01*
X025877Y027732D01*
X025800Y027919D01*
X025658Y028061D01*
X025488Y028131D01*
X025658Y028202D01*
X025800Y028344D01*
X025877Y028531D01*
X025877Y028732D01*
X025800Y028919D01*
X025658Y029061D01*
X025471Y029138D01*
X025270Y029138D01*
X025083Y029061D01*
X025010Y028988D02*
X024039Y028988D01*
X024014Y028889D02*
X024929Y028889D01*
X024888Y028791D02*
X023974Y028791D01*
X023892Y028692D02*
X024864Y028692D01*
X024864Y028594D02*
X023758Y028594D01*
X023779Y028495D02*
X024878Y028495D01*
X024919Y028397D02*
X023901Y028397D01*
X023977Y028298D02*
X024987Y028298D01*
X025089Y028200D02*
X024018Y028200D01*
X024039Y028101D02*
X025180Y028101D01*
X025025Y028003D02*
X024039Y028003D01*
X024021Y027904D02*
X024935Y027904D01*
X024894Y027806D02*
X023980Y027806D01*
X023907Y027707D02*
X024864Y027707D01*
X024864Y027609D02*
X023794Y027609D01*
X023743Y027510D02*
X024872Y027510D01*
X024913Y027412D02*
X023886Y027412D01*
X023971Y027313D02*
X024972Y027313D01*
X025070Y027215D02*
X024012Y027215D01*
X024039Y027116D02*
X025216Y027116D01*
X025525Y027116D02*
X027209Y027116D01*
X027209Y027018D02*
X025701Y027018D01*
X025800Y026919D02*
X027209Y026919D01*
X027209Y026821D02*
X025841Y026821D01*
X025877Y026722D02*
X027209Y026722D01*
X027209Y026624D02*
X025877Y026624D01*
X025875Y026525D02*
X027209Y026525D01*
X027209Y026427D02*
X025834Y026427D01*
X025784Y026328D02*
X027209Y026328D01*
X027209Y026230D02*
X025685Y026230D01*
X025686Y026033D02*
X027209Y026033D01*
X027209Y026131D02*
X025489Y026131D01*
X025252Y026131D02*
X024039Y026131D01*
X024039Y026033D02*
X025055Y026033D01*
X024956Y025934D02*
X024033Y025934D01*
X023992Y025836D02*
X024906Y025836D01*
X024866Y025737D02*
X023937Y025737D01*
X023839Y025639D02*
X024864Y025639D01*
X024864Y025540D02*
X023670Y025540D01*
X023856Y025442D02*
X024900Y025442D01*
X024942Y025343D02*
X023954Y025343D01*
X023999Y025245D02*
X025041Y025245D01*
X025070Y025048D02*
X024039Y025048D01*
X024039Y025146D02*
X025218Y025146D01*
X025523Y025146D02*
X027209Y025146D01*
X027209Y025048D02*
X025671Y025048D01*
X025770Y024949D02*
X027209Y024949D01*
X027209Y024851D02*
X025828Y024851D01*
X025869Y024752D02*
X027209Y024752D01*
X027209Y024654D02*
X025877Y024654D01*
X025877Y024555D02*
X027209Y024555D01*
X027209Y024457D02*
X025847Y024457D01*
X025806Y024358D02*
X027209Y024358D01*
X027209Y024260D02*
X025715Y024260D01*
X025559Y024161D02*
X027209Y024161D01*
X027209Y024063D02*
X025654Y024063D01*
X025755Y023964D02*
X027209Y023964D01*
X027209Y023866D02*
X025822Y023866D01*
X025863Y023767D02*
X027209Y023767D01*
X027209Y023669D02*
X025877Y023669D01*
X025877Y023570D02*
X027209Y023570D01*
X027209Y023472D02*
X025853Y023472D01*
X025812Y023373D02*
X027209Y023373D01*
X027209Y023275D02*
X025730Y023275D01*
X025596Y023176D02*
X027209Y023176D01*
X027209Y023078D02*
X025618Y023078D01*
X025740Y022979D02*
X027209Y022979D01*
X027209Y022881D02*
X025816Y022881D01*
X025857Y022782D02*
X027209Y022782D01*
X027209Y022684D02*
X025877Y022684D01*
X025877Y022585D02*
X027209Y022585D01*
X027209Y022487D02*
X025859Y022487D01*
X025818Y022388D02*
X027209Y022388D01*
X027209Y022290D02*
X025745Y022290D01*
X025632Y022191D02*
X027209Y022191D01*
X027209Y022093D02*
X024039Y022093D01*
X024039Y021994D02*
X027209Y021994D01*
X027209Y021896D02*
X024017Y021896D01*
X023976Y021797D02*
X027209Y021797D01*
X027209Y021699D02*
X023899Y021699D01*
X023773Y021600D02*
X027209Y021600D01*
X027209Y021502D02*
X023763Y021502D01*
X023894Y021403D02*
X027209Y021403D01*
X027209Y021305D02*
X023975Y021305D01*
X024015Y021206D02*
X027209Y021206D01*
X027209Y021108D02*
X025545Y021108D01*
X025471Y021138D02*
X025270Y021138D01*
X025083Y021061D01*
X024941Y020919D01*
X024864Y020732D01*
X024864Y020531D01*
X024941Y020344D01*
X025083Y020202D01*
X025253Y020131D01*
X025083Y020061D01*
X024941Y019919D01*
X024864Y019732D01*
X024864Y019531D01*
X024941Y019344D01*
X025083Y019202D01*
X025253Y019131D01*
X025083Y019061D01*
X024941Y018919D01*
X024864Y018732D01*
X024864Y018531D01*
X024941Y018344D01*
X025083Y018202D01*
X025253Y018131D01*
X025083Y018061D01*
X024941Y017919D01*
X024864Y017732D01*
X024864Y017531D01*
X024941Y017344D01*
X025083Y017202D01*
X025253Y017131D01*
X025083Y017061D01*
X024941Y016919D01*
X024864Y016732D01*
X024864Y016531D01*
X024941Y016344D01*
X025083Y016202D01*
X025253Y016131D01*
X025083Y016061D01*
X024941Y015919D01*
X024864Y015732D01*
X024864Y015531D01*
X024941Y015344D01*
X025083Y015202D01*
X025253Y015131D01*
X025083Y015061D01*
X024941Y014919D01*
X024864Y014732D01*
X024864Y014531D01*
X024941Y014344D01*
X025083Y014202D01*
X025253Y014131D01*
X025083Y014061D01*
X024941Y013919D01*
X024864Y013732D01*
X024864Y013531D01*
X024941Y013344D01*
X025083Y013202D01*
X025253Y013131D01*
X025083Y013061D01*
X024941Y012919D01*
X024864Y012732D01*
X024864Y012531D01*
X024941Y012344D01*
X025083Y012202D01*
X025253Y012131D01*
X025083Y012061D01*
X024941Y011919D01*
X024864Y011732D01*
X024864Y011531D01*
X024941Y011344D01*
X025083Y011202D01*
X025270Y011125D01*
X025471Y011125D01*
X025658Y011202D01*
X025800Y011344D01*
X025877Y011531D01*
X025877Y011732D01*
X025800Y011919D01*
X025658Y012061D01*
X025488Y012131D01*
X025658Y012202D01*
X025800Y012344D01*
X025877Y012531D01*
X025877Y012732D01*
X025800Y012919D01*
X025658Y013061D01*
X025488Y013131D01*
X025658Y013202D01*
X025800Y013344D01*
X025877Y013531D01*
X025877Y013732D01*
X025800Y013919D01*
X025658Y014061D01*
X025488Y014131D01*
X025658Y014202D01*
X025800Y014344D01*
X025877Y014531D01*
X025877Y014732D01*
X025800Y014919D01*
X025658Y015061D01*
X025488Y015131D01*
X025658Y015202D01*
X025800Y015344D01*
X025877Y015531D01*
X025877Y015732D01*
X025800Y015919D01*
X025658Y016061D01*
X025488Y016131D01*
X025658Y016202D01*
X025800Y016344D01*
X025877Y016531D01*
X025877Y016732D01*
X025800Y016919D01*
X025658Y017061D01*
X025488Y017131D01*
X025658Y017202D01*
X025800Y017344D01*
X025877Y017531D01*
X025877Y017732D01*
X025800Y017919D01*
X025658Y018061D01*
X025488Y018131D01*
X025658Y018202D01*
X025800Y018344D01*
X025877Y018531D01*
X025877Y018732D01*
X025800Y018919D01*
X025658Y019061D01*
X025488Y019131D01*
X025658Y019202D01*
X025800Y019344D01*
X025877Y019531D01*
X025877Y019732D01*
X025800Y019919D01*
X025658Y020061D01*
X025488Y020131D01*
X025658Y020202D01*
X025800Y020344D01*
X025877Y020531D01*
X025877Y020732D01*
X025800Y020919D01*
X025658Y021061D01*
X025471Y021138D01*
X025710Y021009D02*
X027209Y021009D01*
X027209Y020911D02*
X025803Y020911D01*
X025844Y020812D02*
X027209Y020812D01*
X027209Y020714D02*
X025877Y020714D01*
X025877Y020615D02*
X027209Y020615D01*
X027209Y020517D02*
X025872Y020517D01*
X025831Y020418D02*
X027209Y020418D01*
X027209Y020320D02*
X025775Y020320D01*
X025677Y020221D02*
X027209Y020221D01*
X027209Y020123D02*
X025509Y020123D01*
X025695Y020024D02*
X027209Y020024D01*
X027209Y019926D02*
X025793Y019926D01*
X025838Y019827D02*
X027209Y019827D01*
X027209Y019729D02*
X025877Y019729D01*
X025877Y019630D02*
X027209Y019630D01*
X027209Y019532D02*
X025877Y019532D01*
X025837Y019433D02*
X027209Y019433D01*
X027209Y019335D02*
X025790Y019335D01*
X025692Y019236D02*
X027209Y019236D01*
X027209Y019138D02*
X025503Y019138D01*
X025680Y019039D02*
X027209Y019039D01*
X027209Y018941D02*
X025778Y018941D01*
X025832Y018842D02*
X027209Y018842D01*
X027209Y018744D02*
X025873Y018744D01*
X025877Y018645D02*
X027209Y018645D01*
X027209Y018547D02*
X025877Y018547D01*
X025843Y018448D02*
X027209Y018448D01*
X027209Y018350D02*
X025802Y018350D01*
X025707Y018251D02*
X027209Y018251D01*
X027209Y018153D02*
X025539Y018153D01*
X025665Y018054D02*
X027209Y018054D01*
X027209Y017956D02*
X025763Y017956D01*
X025826Y017857D02*
X027209Y017857D01*
X027209Y017759D02*
X025866Y017759D01*
X025877Y017660D02*
X027209Y017660D01*
X027209Y017562D02*
X025877Y017562D01*
X025849Y017463D02*
X027209Y017463D01*
X027209Y017365D02*
X025809Y017365D01*
X025722Y017266D02*
X027209Y017266D01*
X027209Y017168D02*
X025575Y017168D01*
X025638Y017069D02*
X027209Y017069D01*
X027209Y016971D02*
X025748Y016971D01*
X025819Y016872D02*
X027209Y016872D01*
X027209Y016774D02*
X025860Y016774D01*
X025877Y016675D02*
X027209Y016675D01*
X027209Y016577D02*
X025877Y016577D01*
X025856Y016478D02*
X027209Y016478D01*
X027209Y016380D02*
X025815Y016380D01*
X025737Y016281D02*
X027209Y016281D01*
X027209Y016183D02*
X025611Y016183D01*
X025602Y016084D02*
X027209Y016084D01*
X027209Y015986D02*
X025733Y015986D01*
X025813Y015887D02*
X027209Y015887D01*
X027209Y015789D02*
X025854Y015789D01*
X025877Y015690D02*
X027209Y015690D01*
X027209Y015592D02*
X025877Y015592D01*
X025862Y015493D02*
X027209Y015493D01*
X027209Y015395D02*
X025821Y015395D01*
X025752Y015296D02*
X027209Y015296D01*
X027209Y015198D02*
X025648Y015198D01*
X025566Y015099D02*
X027209Y015099D01*
X027209Y015001D02*
X025718Y015001D01*
X025807Y014902D02*
X027209Y014902D01*
X027209Y014804D02*
X025848Y014804D01*
X025877Y014705D02*
X027209Y014705D01*
X027209Y014607D02*
X025877Y014607D01*
X025868Y014508D02*
X027209Y014508D01*
X027209Y014410D02*
X025827Y014410D01*
X025767Y014311D02*
X027209Y014311D01*
X027209Y014213D02*
X025668Y014213D01*
X025530Y014114D02*
X027209Y014114D01*
X027209Y014016D02*
X025703Y014016D01*
X025801Y013917D02*
X027209Y013917D01*
X027209Y013819D02*
X025842Y013819D01*
X025877Y013720D02*
X027209Y013720D01*
X027209Y013622D02*
X025877Y013622D01*
X025874Y013523D02*
X027209Y013523D01*
X027209Y013425D02*
X025833Y013425D01*
X025782Y013326D02*
X027209Y013326D01*
X027209Y013228D02*
X025683Y013228D01*
X025688Y013031D02*
X027209Y013031D01*
X027209Y013129D02*
X025494Y013129D01*
X025247Y013129D02*
X024039Y013129D01*
X024039Y013031D02*
X025053Y013031D01*
X024954Y012932D02*
X024032Y012932D01*
X023991Y012834D02*
X024906Y012834D01*
X024865Y012735D02*
X023935Y012735D01*
X023837Y012637D02*
X024864Y012637D01*
X024864Y012538D02*
X023675Y012538D01*
X023858Y012440D02*
X024901Y012440D01*
X024944Y012341D02*
X023956Y012341D01*
X024000Y012243D02*
X025043Y012243D01*
X025068Y012046D02*
X024039Y012046D01*
X024039Y012144D02*
X025223Y012144D01*
X025518Y012144D02*
X027209Y012144D01*
X027209Y012046D02*
X025673Y012046D01*
X025772Y011947D02*
X027209Y011947D01*
X027209Y011849D02*
X025829Y011849D01*
X025870Y011750D02*
X027209Y011750D01*
X027209Y011652D02*
X025877Y011652D01*
X025877Y011553D02*
X027209Y011553D01*
X027209Y011455D02*
X025846Y011455D01*
X025805Y011356D02*
X027209Y011356D01*
X027209Y011258D02*
X025713Y011258D01*
X025555Y011159D02*
X027209Y011159D01*
X027209Y011061D02*
X024039Y011061D01*
X024035Y011159D02*
X025186Y011159D01*
X025028Y011258D02*
X023994Y011258D01*
X023941Y011356D02*
X024936Y011356D01*
X024895Y011455D02*
X023843Y011455D01*
X023852Y011652D02*
X024864Y011652D01*
X024871Y011750D02*
X023950Y011750D01*
X023998Y011849D02*
X024912Y011849D01*
X024969Y011947D02*
X024038Y011947D01*
X023660Y011553D02*
X024864Y011553D01*
X024039Y010962D02*
X027209Y010962D01*
X027209Y010864D02*
X024004Y010864D01*
X023963Y010765D02*
X027209Y010765D01*
X027209Y010667D02*
X023867Y010667D01*
X023696Y010568D02*
X027209Y010568D01*
X027209Y010470D02*
X023828Y010470D01*
X023926Y010371D02*
X027209Y010371D01*
X027209Y010273D02*
X023988Y010273D01*
X024029Y010174D02*
X027209Y010174D01*
X027209Y010076D02*
X024039Y010076D01*
X024039Y009977D02*
X027209Y009977D01*
X027209Y009879D02*
X024010Y009879D01*
X023969Y009780D02*
X027209Y009780D01*
X027209Y009682D02*
X023881Y009682D01*
X023732Y009583D02*
X027209Y009583D01*
X027209Y009485D02*
X023804Y009485D01*
X023911Y009386D02*
X027209Y009386D01*
X027209Y009288D02*
X023982Y009288D01*
X024022Y009189D02*
X027209Y009189D01*
X027209Y009091D02*
X024039Y009091D01*
X024039Y008992D02*
X027209Y008992D01*
X027209Y008894D02*
X024016Y008894D01*
X023975Y008795D02*
X027209Y008795D01*
X027209Y008697D02*
X023896Y008697D01*
X023768Y008598D02*
X027209Y008598D01*
X027209Y008500D02*
X023768Y008500D01*
X023896Y008401D02*
X027209Y008401D01*
X027209Y008303D02*
X023975Y008303D01*
X024016Y008204D02*
X027209Y008204D01*
X027209Y008106D02*
X024039Y008106D01*
X024039Y008007D02*
X027209Y008007D01*
X027209Y007909D02*
X024022Y007909D01*
X023982Y007810D02*
X027209Y007810D01*
X027209Y007712D02*
X023911Y007712D01*
X023805Y007613D02*
X027209Y007613D01*
X027209Y007515D02*
X020531Y007515D01*
X020556Y007416D02*
X027209Y007416D01*
X027209Y007318D02*
X020534Y007318D01*
X020485Y007121D02*
X020485Y007121D01*
X020398Y007022D02*
X027209Y007022D01*
X027209Y006924D02*
X020310Y006924D01*
X020288Y006898D02*
X020288Y006898D01*
X020095Y006825D02*
X027209Y006825D01*
X023259Y007613D02*
X022805Y007613D01*
X022911Y007712D02*
X023152Y007712D01*
X023082Y007810D02*
X022982Y007810D01*
X023022Y007909D02*
X023041Y007909D01*
X022088Y008795D02*
X006320Y008795D01*
X006229Y008761D02*
X006229Y008761D01*
X006508Y008866D02*
X006508Y008866D01*
X006532Y008894D02*
X022048Y008894D01*
X022025Y008992D02*
X006619Y008992D01*
X006706Y009090D02*
X006706Y009090D01*
X006706Y009091D02*
X022025Y009091D01*
X022041Y009189D02*
X006730Y009189D01*
X006755Y009288D02*
X022082Y009288D01*
X022152Y009386D02*
X006776Y009386D01*
X006751Y009485D02*
X022260Y009485D01*
X022332Y009583D02*
X006727Y009583D01*
X006695Y009682D02*
X022182Y009682D01*
X022095Y009780D02*
X006608Y009780D01*
X006520Y009879D02*
X022054Y009879D01*
X022025Y009977D02*
X006285Y009977D01*
X006229Y009998D02*
X006229Y009998D01*
X006054Y009977D02*
X005110Y009977D01*
X005110Y010076D02*
X022025Y010076D01*
X022035Y010174D02*
X005099Y010174D01*
X005059Y010273D02*
X022076Y010273D01*
X022137Y010371D02*
X004997Y010371D01*
X004899Y010470D02*
X022236Y010470D01*
X022368Y010568D02*
X004767Y010568D01*
X004937Y010667D02*
X022197Y010667D01*
X022101Y010765D02*
X005034Y010765D01*
X005075Y010864D02*
X022060Y010864D01*
X022025Y010962D02*
X005110Y010962D01*
X005110Y011061D02*
X022025Y011061D01*
X022029Y011159D02*
X005106Y011159D01*
X005065Y011258D02*
X022070Y011258D01*
X022122Y011356D02*
X005012Y011356D01*
X004914Y011455D02*
X022221Y011455D01*
X022212Y011652D02*
X004922Y011652D01*
X005021Y011750D02*
X022114Y011750D01*
X022066Y011849D02*
X005068Y011849D01*
X005109Y011947D02*
X022025Y011947D01*
X022025Y012046D02*
X005110Y012046D01*
X005110Y012144D02*
X022025Y012144D01*
X022064Y012243D02*
X005071Y012243D01*
X005027Y012341D02*
X022107Y012341D01*
X022206Y012440D02*
X004929Y012440D01*
X004907Y012637D02*
X022227Y012637D01*
X022129Y012735D02*
X005006Y012735D01*
X005062Y012834D02*
X022072Y012834D01*
X022032Y012932D02*
X005103Y012932D01*
X005110Y013031D02*
X022025Y013031D01*
X022025Y013129D02*
X005110Y013129D01*
X005077Y013228D02*
X022057Y013228D01*
X022098Y013326D02*
X005036Y013326D01*
X004944Y013425D02*
X022191Y013425D01*
X022353Y013523D02*
X004782Y013523D01*
X004892Y013622D02*
X022242Y013622D01*
X022144Y013720D02*
X004991Y013720D01*
X005056Y013819D02*
X022079Y013819D01*
X022038Y013917D02*
X005097Y013917D01*
X005110Y014016D02*
X022025Y014016D01*
X022025Y014114D02*
X005110Y014114D01*
X005084Y014213D02*
X022051Y014213D01*
X022092Y014311D02*
X005043Y014311D01*
X004959Y014410D02*
X022176Y014410D01*
X022316Y014508D02*
X004818Y014508D01*
X004860Y014607D02*
X022275Y014607D01*
X022159Y014705D02*
X004976Y014705D01*
X005050Y014804D02*
X022085Y014804D01*
X022044Y014902D02*
X005091Y014902D01*
X005110Y015001D02*
X022025Y015001D01*
X022025Y015099D02*
X005110Y015099D01*
X005090Y015198D02*
X022045Y015198D01*
X022086Y015296D02*
X005049Y015296D01*
X004974Y015395D02*
X022161Y015395D01*
X022280Y015493D02*
X004855Y015493D01*
X004824Y015592D02*
X022311Y015592D01*
X022174Y015690D02*
X004961Y015690D01*
X005044Y015789D02*
X022091Y015789D01*
X022050Y015887D02*
X005084Y015887D01*
X005110Y015986D02*
X022025Y015986D01*
X022025Y016084D02*
X005110Y016084D01*
X005096Y016183D02*
X022039Y016183D01*
X022080Y016281D02*
X005055Y016281D01*
X004989Y016380D02*
X022146Y016380D01*
X022244Y016478D02*
X004890Y016478D01*
X004787Y016577D02*
X022347Y016577D01*
X022189Y016675D02*
X004946Y016675D01*
X005037Y016774D02*
X022097Y016774D01*
X022056Y016872D02*
X005078Y016872D01*
X005110Y016971D02*
X022025Y016971D01*
X022025Y017069D02*
X005110Y017069D01*
X005102Y017168D02*
X022033Y017168D01*
X022073Y017266D02*
X005061Y017266D01*
X005004Y017365D02*
X022131Y017365D01*
X022229Y017463D02*
X004905Y017463D01*
X004751Y017562D02*
X022384Y017562D01*
X022204Y017660D02*
X004931Y017660D01*
X005029Y017759D02*
X022105Y017759D01*
X022063Y017857D02*
X005072Y017857D01*
X005110Y017956D02*
X022025Y017956D01*
X022025Y018054D02*
X005110Y018054D01*
X005108Y018153D02*
X022026Y018153D01*
X022067Y018251D02*
X005068Y018251D01*
X005019Y018350D02*
X022116Y018350D01*
X022214Y018448D02*
X004920Y018448D01*
X004916Y018645D02*
X022219Y018645D01*
X022120Y018744D02*
X005014Y018744D01*
X005066Y018842D02*
X022069Y018842D01*
X022028Y018941D02*
X005107Y018941D01*
X005110Y019039D02*
X022025Y019039D01*
X022025Y019138D02*
X005110Y019138D01*
X005074Y019236D02*
X022061Y019236D01*
X022102Y019335D02*
X005033Y019335D01*
X004935Y019433D02*
X022199Y019433D01*
X022373Y019532D02*
X004762Y019532D01*
X004901Y019630D02*
X022234Y019630D01*
X022135Y019729D02*
X004999Y019729D01*
X005060Y019827D02*
X022075Y019827D01*
X022034Y019926D02*
X005100Y019926D01*
X005110Y020024D02*
X022025Y020024D01*
X022025Y020123D02*
X005110Y020123D01*
X005080Y020221D02*
X022055Y020221D01*
X022095Y020320D02*
X005039Y020320D01*
X004950Y020418D02*
X022184Y020418D01*
X022337Y020517D02*
X004798Y020517D01*
X004880Y020615D02*
X022254Y020615D01*
X022150Y020714D02*
X004984Y020714D01*
X005053Y020812D02*
X022081Y020812D01*
X022041Y020911D02*
X005094Y020911D01*
X005110Y021009D02*
X022025Y021009D01*
X022025Y021108D02*
X005110Y021108D01*
X005086Y021206D02*
X022048Y021206D01*
X022089Y021305D02*
X005045Y021305D01*
X004965Y021403D02*
X022169Y021403D01*
X022301Y021502D02*
X004834Y021502D01*
X004844Y021600D02*
X022291Y021600D01*
X022165Y021699D02*
X004969Y021699D01*
X005047Y021797D02*
X022088Y021797D01*
X022047Y021896D02*
X005088Y021896D01*
X005110Y021994D02*
X022025Y021994D01*
X022025Y022093D02*
X005110Y022093D01*
X005092Y022191D02*
X022042Y022191D01*
X022083Y022290D02*
X005052Y022290D01*
X004980Y022388D02*
X022154Y022388D01*
X022264Y022487D02*
X004870Y022487D01*
X004808Y022585D02*
X022327Y022585D01*
X022180Y022684D02*
X004954Y022684D01*
X005041Y022782D02*
X022094Y022782D01*
X022053Y022881D02*
X005082Y022881D01*
X005110Y022979D02*
X022025Y022979D01*
X022025Y023078D02*
X005110Y023078D01*
X005099Y023176D02*
X022036Y023176D01*
X022077Y023275D02*
X005058Y023275D01*
X004995Y023373D02*
X022139Y023373D01*
X022238Y023472D02*
X004897Y023472D01*
X004772Y023570D02*
X022363Y023570D01*
X022195Y023669D02*
X004939Y023669D01*
X005035Y023767D02*
X022100Y023767D01*
X022059Y023866D02*
X005076Y023866D01*
X005110Y023964D02*
X022025Y023964D01*
X022025Y024063D02*
X005110Y024063D01*
X005105Y024161D02*
X022030Y024161D01*
X022071Y024260D02*
X005064Y024260D01*
X005010Y024358D02*
X022124Y024358D01*
X022223Y024457D02*
X004912Y024457D01*
X004924Y024654D02*
X022210Y024654D01*
X022112Y024752D02*
X005023Y024752D01*
X005069Y024851D02*
X022065Y024851D01*
X022025Y024949D02*
X005110Y024949D01*
X005110Y025048D02*
X022025Y025048D01*
X022025Y025146D02*
X005110Y025146D01*
X005070Y025245D02*
X022064Y025245D01*
X022109Y025343D02*
X005025Y025343D01*
X004927Y025442D02*
X022208Y025442D01*
X022225Y025639D02*
X004909Y025639D01*
X005008Y025737D02*
X022127Y025737D01*
X022072Y025836D02*
X005063Y025836D01*
X005104Y025934D02*
X022031Y025934D01*
X022025Y026033D02*
X005110Y026033D01*
X005110Y026131D02*
X022025Y026131D01*
X022058Y026230D02*
X005076Y026230D01*
X005036Y026328D02*
X022099Y026328D01*
X022193Y026427D02*
X004942Y026427D01*
X004777Y026525D02*
X022357Y026525D01*
X022240Y026624D02*
X004894Y026624D01*
X004993Y026722D02*
X022142Y026722D01*
X022078Y026821D02*
X005057Y026821D01*
X005098Y026919D02*
X022037Y026919D01*
X022025Y027018D02*
X005110Y027018D01*
X005110Y027116D02*
X022025Y027116D01*
X022052Y027215D02*
X005083Y027215D01*
X005042Y027313D02*
X022093Y027313D01*
X022178Y027412D02*
X004957Y027412D01*
X004741Y025540D02*
X022394Y025540D01*
X022399Y024555D02*
X004735Y024555D01*
X006671Y028594D02*
X010373Y028594D01*
X010362Y028692D02*
X006671Y028692D01*
X006671Y028791D02*
X010321Y028791D01*
X010307Y028889D02*
X006671Y028889D01*
X006671Y028988D02*
X010307Y028988D01*
X010307Y029086D02*
X006671Y029086D01*
X006671Y029185D02*
X010307Y029185D01*
X010307Y029283D02*
X006671Y029283D01*
X006671Y029382D02*
X010307Y029382D01*
X010307Y029480D02*
X006671Y029480D01*
X006671Y029579D02*
X010307Y029579D01*
X010307Y029677D02*
X006671Y029677D01*
X006671Y029776D02*
X010307Y029776D01*
X010307Y029874D02*
X006671Y029874D01*
X006671Y029973D02*
X010307Y029973D01*
X010307Y030071D02*
X006671Y030071D01*
X006671Y030170D02*
X010307Y030170D01*
X010307Y030268D02*
X006671Y030268D01*
X006671Y030367D02*
X010307Y030367D01*
X010307Y030465D02*
X006671Y030465D01*
X006671Y030564D02*
X010307Y030564D01*
X010307Y030662D02*
X006671Y030662D01*
X006671Y030761D02*
X010307Y030761D01*
X010307Y030859D02*
X006671Y030859D01*
X006671Y030958D02*
X010307Y030958D01*
X010307Y031056D02*
X006671Y031056D01*
X006671Y031155D02*
X010307Y031155D01*
X010307Y031253D02*
X006671Y031253D01*
X006671Y031352D02*
X010307Y031352D01*
X010307Y031450D02*
X006671Y031450D01*
X006671Y031549D02*
X010307Y031549D01*
X010307Y031647D02*
X006671Y031647D01*
X006671Y031746D02*
X010307Y031746D01*
X010307Y031844D02*
X006671Y031844D01*
X006671Y031943D02*
X010307Y031943D01*
X010307Y032041D02*
X006671Y032041D01*
X006671Y032140D02*
X010307Y032140D01*
X010307Y032238D02*
X006671Y032238D01*
X006671Y032337D02*
X010307Y032337D01*
X010307Y032435D02*
X006671Y032435D01*
X006671Y032534D02*
X010307Y032534D01*
X010307Y032632D02*
X006671Y032632D01*
X006671Y032731D02*
X010307Y032731D01*
X010307Y032829D02*
X006671Y032829D01*
X006671Y032928D02*
X010307Y032928D01*
X010307Y033026D02*
X006671Y033026D01*
X006671Y033125D02*
X010307Y033125D01*
X010307Y033223D02*
X006671Y033223D01*
X006671Y033322D02*
X010307Y033322D01*
X010307Y033420D02*
X006671Y033420D01*
X006671Y033519D02*
X010307Y033519D01*
X010307Y033617D02*
X006671Y033617D01*
X006671Y033716D02*
X010307Y033716D01*
X010307Y033814D02*
X006671Y033814D01*
X006671Y033913D02*
X010307Y033913D01*
X010307Y034011D02*
X006671Y034011D01*
X006671Y034110D02*
X010307Y034110D01*
X010307Y034208D02*
X006671Y034208D01*
X006671Y034307D02*
X010307Y034307D01*
X010307Y034405D02*
X006671Y034405D01*
X006671Y034504D02*
X010307Y034504D01*
X010307Y034602D02*
X006671Y034602D01*
X006671Y034701D02*
X010307Y034701D01*
X010307Y034799D02*
X006671Y034799D01*
X006671Y034898D02*
X010307Y034898D01*
X010307Y034996D02*
X006671Y034996D01*
X006671Y035095D02*
X010307Y035095D01*
X010307Y035193D02*
X006671Y035193D01*
X006671Y035292D02*
X010307Y035292D01*
X010307Y035390D02*
X006671Y035390D01*
X006671Y035489D02*
X010307Y035489D01*
X010307Y035587D02*
X006671Y035587D01*
X006671Y035686D02*
X010307Y035686D01*
X010307Y035784D02*
X006671Y035784D01*
X006671Y035883D02*
X010307Y035883D01*
X010307Y035981D02*
X006671Y035981D01*
X006671Y036080D02*
X010307Y036080D01*
X010307Y036178D02*
X006671Y036178D01*
X006671Y036277D02*
X010307Y036277D01*
X010307Y036375D02*
X006671Y036375D01*
X006671Y036474D02*
X010307Y036474D01*
X010307Y036572D02*
X006671Y036572D01*
X006671Y036671D02*
X010307Y036671D01*
X010307Y036769D02*
X006671Y036769D01*
X006671Y036868D02*
X010307Y036868D01*
X010307Y036966D02*
X006671Y036966D01*
X006645Y037065D02*
X010307Y037065D01*
X010307Y037163D02*
X006604Y037163D01*
X006516Y037262D02*
X010307Y037262D01*
X010307Y037360D02*
X008006Y037360D01*
X008131Y037459D02*
X010307Y037459D01*
X010307Y037557D02*
X008209Y037557D01*
X008249Y037656D02*
X010307Y037656D01*
X010307Y037754D02*
X008272Y037754D01*
X008272Y037853D02*
X010307Y037853D01*
X010307Y037951D02*
X008272Y037951D01*
X008272Y038050D02*
X010307Y038050D01*
X010307Y038148D02*
X008272Y038148D01*
X008272Y038247D02*
X010307Y038247D01*
X010307Y038345D02*
X008272Y038345D01*
X008272Y038444D02*
X010307Y038444D01*
X010307Y038542D02*
X008259Y038542D01*
X008219Y038641D02*
X010307Y038641D01*
X010307Y038739D02*
X008155Y038739D01*
X008056Y038838D02*
X010307Y038838D01*
X010307Y038936D02*
X000772Y038936D01*
X000674Y038838D02*
X005467Y038838D01*
X005369Y038739D02*
X000650Y038739D01*
X000650Y038641D02*
X005305Y038641D01*
X005264Y038542D02*
X000650Y038542D01*
X000650Y038444D02*
X005252Y038444D01*
X005252Y038345D02*
X000650Y038345D01*
X000650Y038247D02*
X005252Y038247D01*
X005252Y038148D02*
X000650Y038148D01*
X000650Y038050D02*
X005252Y038050D01*
X005252Y037951D02*
X000650Y037951D01*
X000650Y037853D02*
X005252Y037853D01*
X005252Y037754D02*
X000650Y037754D01*
X000650Y037656D02*
X005272Y037656D01*
X005272Y037557D02*
X000650Y037557D01*
X000650Y037459D02*
X005272Y037459D01*
X005272Y037360D02*
X000650Y037360D01*
X000650Y037262D02*
X005272Y037262D01*
X005298Y037163D02*
X001900Y037163D01*
X001898Y037164D02*
X001898Y037164D01*
X001602Y037128D01*
X001357Y036958D01*
X001218Y036694D01*
X001218Y036396D01*
X001218Y036396D01*
X001357Y036132D01*
X001357Y036131D02*
X001602Y035962D01*
X001602Y035962D01*
X001898Y035926D01*
X001898Y035926D01*
X002177Y036032D01*
X002177Y036032D01*
X002375Y036255D01*
X002447Y036545D01*
X002375Y036835D01*
X002177Y037058D01*
X001898Y037164D01*
X001894Y037163D02*
X000650Y037163D01*
X000650Y037065D02*
X001511Y037065D01*
X001602Y037128D02*
X001602Y037128D01*
X001368Y036966D02*
X000650Y036966D01*
X000650Y036868D02*
X001309Y036868D01*
X001357Y036958D02*
X001357Y036958D01*
X001357Y036958D01*
X001257Y036769D02*
X000650Y036769D01*
X000650Y036671D02*
X001218Y036671D01*
X001218Y036572D02*
X000650Y036572D01*
X000650Y036474D02*
X001218Y036474D01*
X001229Y036375D02*
X000650Y036375D01*
X000650Y036277D02*
X001280Y036277D01*
X001332Y036178D02*
X000650Y036178D01*
X000650Y036080D02*
X001432Y036080D01*
X001357Y036131D02*
X001357Y036131D01*
X001357Y036132D01*
X001574Y035981D02*
X000650Y035981D01*
X000650Y035883D02*
X005691Y035883D01*
X005691Y035981D02*
X002044Y035981D01*
X002177Y036032D02*
X002177Y036032D01*
X002220Y036080D02*
X005691Y036080D01*
X005691Y036178D02*
X002307Y036178D01*
X002375Y036255D02*
X002375Y036255D01*
X002381Y036277D02*
X005691Y036277D01*
X005691Y036375D02*
X002405Y036375D01*
X002429Y036474D02*
X005691Y036474D01*
X005691Y036572D02*
X002440Y036572D01*
X002416Y036671D02*
X005691Y036671D01*
X005622Y036769D02*
X002391Y036769D01*
X002375Y036835D02*
X002375Y036835D01*
X002346Y036868D02*
X005524Y036868D01*
X005425Y036966D02*
X002259Y036966D01*
X002177Y037058D02*
X002177Y037058D01*
X002159Y037065D02*
X005338Y037065D01*
X006252Y037557D02*
X006315Y037557D01*
X006319Y037459D02*
X006393Y037459D01*
X006417Y037360D02*
X006517Y037360D01*
X006274Y037656D02*
X006252Y037656D01*
X006259Y038542D02*
X006264Y038542D01*
X006305Y038641D02*
X006219Y038641D01*
X006155Y038739D02*
X006369Y038739D01*
X006467Y038838D02*
X006056Y038838D01*
X007056Y038838D02*
X007467Y038838D01*
X007369Y038739D02*
X007155Y038739D01*
X007219Y038641D02*
X007305Y038641D01*
X007264Y038542D02*
X007259Y038542D01*
X007249Y037656D02*
X007274Y037656D01*
X007315Y037557D02*
X007209Y037557D01*
X007131Y037459D02*
X007393Y037459D01*
X007517Y037360D02*
X007006Y037360D01*
X005691Y035784D02*
X000650Y035784D01*
X000650Y035686D02*
X005691Y035686D01*
X005691Y035587D02*
X000650Y035587D01*
X000650Y035489D02*
X005691Y035489D01*
X005691Y035390D02*
X000650Y035390D01*
X000650Y035292D02*
X005691Y035292D01*
X005691Y035193D02*
X000650Y035193D01*
X000650Y035095D02*
X005691Y035095D01*
X005691Y034996D02*
X000650Y034996D01*
X000650Y034898D02*
X005691Y034898D01*
X005691Y034799D02*
X000650Y034799D01*
X000650Y034701D02*
X005691Y034701D01*
X005691Y034602D02*
X000650Y034602D01*
X000650Y034504D02*
X005691Y034504D01*
X005691Y034405D02*
X000650Y034405D01*
X000650Y034307D02*
X005691Y034307D01*
X005691Y034208D02*
X000650Y034208D01*
X000650Y034110D02*
X005691Y034110D01*
X005691Y034011D02*
X000650Y034011D01*
X000650Y033913D02*
X005691Y033913D01*
X005691Y033814D02*
X000650Y033814D01*
X000650Y033716D02*
X005691Y033716D01*
X005691Y033617D02*
X000650Y033617D01*
X000650Y033519D02*
X005691Y033519D01*
X005691Y033420D02*
X000650Y033420D01*
X000650Y033322D02*
X005691Y033322D01*
X005691Y033223D02*
X000650Y033223D01*
X000650Y033125D02*
X005691Y033125D01*
X005691Y033026D02*
X000650Y033026D01*
X000650Y032928D02*
X005691Y032928D01*
X005691Y032829D02*
X000650Y032829D01*
X000650Y032731D02*
X005691Y032731D01*
X005691Y032632D02*
X000650Y032632D01*
X000650Y032534D02*
X005691Y032534D01*
X005691Y032435D02*
X000650Y032435D01*
X000650Y032337D02*
X005691Y032337D01*
X005691Y032238D02*
X000650Y032238D01*
X000650Y032140D02*
X005691Y032140D01*
X005691Y032041D02*
X000650Y032041D01*
X000650Y031943D02*
X005691Y031943D01*
X005691Y031844D02*
X000650Y031844D01*
X000650Y031746D02*
X005691Y031746D01*
X005691Y031647D02*
X000650Y031647D01*
X000650Y031549D02*
X005691Y031549D01*
X005691Y031450D02*
X000650Y031450D01*
X000650Y031352D02*
X005691Y031352D01*
X005691Y031253D02*
X000650Y031253D01*
X000650Y031155D02*
X005691Y031155D01*
X005691Y031056D02*
X001488Y031056D01*
X001635Y030958D02*
X005691Y030958D01*
X005691Y030859D02*
X001722Y030859D01*
X001763Y030761D02*
X005691Y030761D01*
X005691Y030662D02*
X001791Y030662D01*
X001791Y030564D02*
X005691Y030564D01*
X005691Y030465D02*
X001780Y030465D01*
X001739Y030367D02*
X005691Y030367D01*
X005691Y030268D02*
X001677Y030268D01*
X001578Y030170D02*
X005691Y030170D01*
X005691Y030071D02*
X001452Y030071D01*
X001620Y029973D02*
X005691Y029973D01*
X005691Y029874D02*
X001716Y029874D01*
X001756Y029776D02*
X005691Y029776D01*
X005691Y029677D02*
X001791Y029677D01*
X001791Y029579D02*
X005691Y029579D01*
X001116Y030071D02*
X000650Y030071D01*
X000650Y029973D02*
X000948Y029973D01*
X000852Y029874D02*
X000650Y029874D01*
X000650Y029776D02*
X000811Y029776D01*
X000777Y029677D02*
X000650Y029677D01*
X000650Y029579D02*
X000777Y029579D01*
X000782Y029480D02*
X000650Y029480D01*
X000650Y029382D02*
X000822Y029382D01*
X000876Y029283D02*
X000650Y029283D01*
X000650Y029185D02*
X000975Y029185D01*
X000990Y030170D02*
X000650Y030170D01*
X000650Y030268D02*
X000891Y030268D01*
X000829Y030367D02*
X000650Y030367D01*
X000650Y030465D02*
X000788Y030465D01*
X000777Y030564D02*
X000650Y030564D01*
X000650Y030662D02*
X000777Y030662D01*
X000805Y030761D02*
X000650Y030761D01*
X000650Y030859D02*
X000846Y030859D01*
X000933Y030958D02*
X000650Y030958D01*
X000650Y031056D02*
X001080Y031056D01*
X000871Y039035D02*
X010307Y039035D01*
X010307Y039133D02*
X000969Y039133D01*
X001068Y039232D02*
X010307Y039232D01*
X010307Y039330D02*
X001166Y039330D01*
X001265Y039429D02*
X010307Y039429D01*
X010307Y039527D02*
X001363Y039527D01*
X004725Y018547D02*
X022409Y018547D01*
X023654Y018547D02*
X024864Y018547D01*
X024864Y018645D02*
X023845Y018645D01*
X023944Y018744D02*
X024868Y018744D01*
X024909Y018842D02*
X023995Y018842D01*
X024036Y018941D02*
X024963Y018941D01*
X025061Y019039D02*
X024039Y019039D01*
X024039Y019138D02*
X025238Y019138D01*
X025049Y019236D02*
X024003Y019236D01*
X023962Y019335D02*
X024951Y019335D01*
X024904Y019433D02*
X023864Y019433D01*
X023691Y019532D02*
X024864Y019532D01*
X024864Y019630D02*
X023830Y019630D01*
X023929Y019729D02*
X024864Y019729D01*
X024903Y019827D02*
X023989Y019827D01*
X024029Y019926D02*
X024948Y019926D01*
X025046Y020024D02*
X024039Y020024D01*
X024039Y020123D02*
X025232Y020123D01*
X025064Y020221D02*
X024009Y020221D01*
X023968Y020320D02*
X024966Y020320D01*
X024910Y020418D02*
X023879Y020418D01*
X023727Y020517D02*
X024869Y020517D01*
X024864Y020615D02*
X023809Y020615D01*
X023914Y020714D02*
X024864Y020714D01*
X024897Y020812D02*
X023982Y020812D01*
X024023Y020911D02*
X024937Y020911D01*
X025031Y021009D02*
X024039Y021009D01*
X024039Y021108D02*
X025196Y021108D01*
X025109Y022191D02*
X024022Y022191D01*
X023981Y022290D02*
X024996Y022290D01*
X024923Y022388D02*
X023909Y022388D01*
X023799Y022487D02*
X024882Y022487D01*
X024864Y022585D02*
X023737Y022585D01*
X023884Y022684D02*
X024864Y022684D01*
X024884Y022782D02*
X023970Y022782D01*
X024011Y022881D02*
X024925Y022881D01*
X025001Y022979D02*
X024039Y022979D01*
X024039Y023078D02*
X025123Y023078D01*
X025145Y023176D02*
X024028Y023176D01*
X023987Y023275D02*
X025011Y023275D01*
X024929Y023373D02*
X023924Y023373D01*
X023826Y023472D02*
X024888Y023472D01*
X024864Y023570D02*
X023701Y023570D01*
X023869Y023669D02*
X024864Y023669D01*
X024878Y023767D02*
X023964Y023767D01*
X024005Y023866D02*
X024919Y023866D01*
X024986Y023964D02*
X024039Y023964D01*
X024039Y024063D02*
X025087Y024063D01*
X025181Y024161D02*
X024034Y024161D01*
X023993Y024260D02*
X025026Y024260D01*
X024935Y024358D02*
X023939Y024358D01*
X023841Y024457D02*
X024894Y024457D01*
X024864Y024555D02*
X023665Y024555D01*
X023854Y024654D02*
X024864Y024654D01*
X024872Y024752D02*
X023952Y024752D01*
X023998Y024851D02*
X024913Y024851D01*
X024971Y024949D02*
X024039Y024949D01*
X024006Y026230D02*
X025055Y026230D01*
X024957Y026328D02*
X023965Y026328D01*
X023871Y026427D02*
X024907Y026427D01*
X024866Y026525D02*
X023706Y026525D01*
X023824Y026624D02*
X024864Y026624D01*
X024864Y026722D02*
X023922Y026722D01*
X023986Y026821D02*
X024900Y026821D01*
X025670Y027215D02*
X027209Y027215D01*
X027209Y027313D02*
X025769Y027313D01*
X025828Y027412D02*
X027209Y027412D01*
X027209Y027510D02*
X025869Y027510D01*
X025877Y027609D02*
X027209Y027609D01*
X027209Y027707D02*
X025877Y027707D01*
X025847Y027806D02*
X027209Y027806D01*
X027209Y027904D02*
X025806Y027904D01*
X025716Y028003D02*
X027209Y028003D01*
X027209Y028101D02*
X025561Y028101D01*
X025652Y028200D02*
X027209Y028200D01*
X027209Y028298D02*
X025754Y028298D01*
X025822Y028397D02*
X027209Y028397D01*
X027209Y028495D02*
X025863Y028495D01*
X025877Y028594D02*
X027209Y028594D01*
X027209Y028692D02*
X025877Y028692D01*
X025853Y028791D02*
X027209Y028791D01*
X027209Y028889D02*
X025812Y028889D01*
X025731Y028988D02*
X027209Y028988D01*
X027209Y029086D02*
X025597Y029086D01*
X027209Y029579D02*
X020471Y029579D01*
X020570Y029677D02*
X027209Y029677D01*
X027209Y029776D02*
X020654Y029776D01*
X020695Y029874D02*
X027209Y029874D01*
X027209Y029973D02*
X020719Y029973D01*
X020719Y030071D02*
X027209Y030071D01*
X027209Y030170D02*
X020719Y030170D01*
X020719Y030268D02*
X027209Y030268D01*
X027209Y030367D02*
X020719Y030367D01*
X020719Y030465D02*
X027209Y030465D01*
X027209Y030564D02*
X020719Y030564D01*
X020719Y030662D02*
X027209Y030662D01*
X027209Y030761D02*
X020719Y030761D01*
X020722Y030859D02*
X027209Y030859D01*
X027209Y030958D02*
X020722Y030958D01*
X020722Y031056D02*
X027209Y031056D01*
X027209Y031155D02*
X020722Y031155D01*
X020722Y031253D02*
X027209Y031253D01*
X027209Y031352D02*
X020722Y031352D01*
X020722Y031450D02*
X027209Y031450D01*
X027209Y031549D02*
X020722Y031549D01*
X020722Y031647D02*
X027209Y031647D01*
X027209Y031746D02*
X020722Y031746D01*
X020722Y031844D02*
X027209Y031844D01*
X027209Y031943D02*
X020722Y031943D01*
X020722Y032041D02*
X027209Y032041D01*
X027209Y032140D02*
X020722Y032140D01*
X020722Y032238D02*
X027209Y032238D01*
X027209Y032337D02*
X020722Y032337D01*
X020722Y032435D02*
X027209Y032435D01*
X027209Y032534D02*
X020722Y032534D01*
X020722Y032632D02*
X027209Y032632D01*
X027209Y032731D02*
X020722Y032731D01*
X020722Y032829D02*
X027209Y032829D01*
X027209Y032928D02*
X020722Y032928D01*
X020722Y033026D02*
X027209Y033026D01*
X027209Y033125D02*
X020722Y033125D01*
X020722Y033223D02*
X027209Y033223D01*
X027209Y033322D02*
X020722Y033322D01*
X020722Y033420D02*
X027209Y033420D01*
X027209Y033519D02*
X020722Y033519D01*
X020722Y033617D02*
X027209Y033617D01*
X027209Y033716D02*
X020722Y033716D01*
X020722Y033814D02*
X027209Y033814D01*
X027209Y033913D02*
X020722Y033913D01*
X020722Y034011D02*
X027209Y034011D01*
X027209Y034110D02*
X020722Y034110D01*
X020722Y034208D02*
X027209Y034208D01*
X027209Y034307D02*
X020722Y034307D01*
X020722Y034405D02*
X027209Y034405D01*
X027209Y034504D02*
X020722Y034504D01*
X020722Y034602D02*
X027209Y034602D01*
X027209Y034701D02*
X020722Y034701D01*
X020722Y034799D02*
X027209Y034799D01*
X027209Y034898D02*
X020722Y034898D01*
X020722Y034996D02*
X027209Y034996D01*
X027209Y035095D02*
X020722Y035095D01*
X020722Y035193D02*
X027209Y035193D01*
X027209Y035292D02*
X020722Y035292D01*
X020722Y035390D02*
X027209Y035390D01*
X027209Y035489D02*
X020722Y035489D01*
X020722Y035587D02*
X027209Y035587D01*
X027209Y035686D02*
X020722Y035686D01*
X020722Y035784D02*
X027209Y035784D01*
X027209Y035883D02*
X020722Y035883D01*
X020722Y035981D02*
X027209Y035981D01*
X027209Y036080D02*
X020722Y036080D01*
X020722Y036178D02*
X027209Y036178D01*
X027209Y036277D02*
X020722Y036277D01*
X020722Y036375D02*
X027209Y036375D01*
X027209Y036474D02*
X020722Y036474D01*
X020722Y036572D02*
X027209Y036572D01*
X027209Y036671D02*
X020722Y036671D01*
X020722Y036769D02*
X027209Y036769D01*
X027209Y036868D02*
X020722Y036868D01*
X020722Y036966D02*
X027209Y036966D01*
X027209Y037065D02*
X020722Y037065D01*
X020722Y037163D02*
X027209Y037163D01*
X027209Y037262D02*
X020722Y037262D01*
X020722Y037360D02*
X027209Y037360D01*
X027209Y037459D02*
X020722Y037459D01*
X020722Y037557D02*
X027209Y037557D01*
X027209Y037656D02*
X020722Y037656D01*
X020728Y037754D02*
X027209Y037754D01*
X027209Y037853D02*
X020728Y037853D01*
X020728Y037951D02*
X027209Y037951D01*
X027209Y038050D02*
X020728Y038050D01*
X020728Y038148D02*
X027209Y038148D01*
X027209Y038247D02*
X020728Y038247D01*
X020728Y038345D02*
X027209Y038345D01*
X027209Y038444D02*
X020728Y038444D01*
X020717Y038542D02*
X027209Y038542D01*
X027209Y038641D02*
X020677Y038641D01*
X020615Y038739D02*
X027209Y038739D01*
X027186Y038838D02*
X020516Y038838D01*
X019925Y038838D02*
X018410Y038838D01*
X018410Y038936D02*
X027087Y038936D01*
X026989Y039035D02*
X018410Y039035D01*
X018410Y039133D02*
X026890Y039133D01*
X026792Y039232D02*
X018410Y039232D01*
X018410Y039330D02*
X026693Y039330D01*
X026595Y039429D02*
X018410Y039429D01*
X018410Y039527D02*
X026496Y039527D01*
X019827Y038739D02*
X018410Y038739D01*
X018410Y038641D02*
X019765Y038641D01*
X019724Y038542D02*
X018410Y038542D01*
X018410Y038444D02*
X019714Y038444D01*
X019714Y038345D02*
X018410Y038345D01*
X018410Y038247D02*
X019714Y038247D01*
X019714Y038148D02*
X018410Y038148D01*
X018410Y038050D02*
X019714Y038050D01*
X019714Y037951D02*
X018410Y037951D01*
X018410Y037853D02*
X019714Y037853D01*
X019714Y037754D02*
X018410Y037754D01*
X018410Y037656D02*
X019741Y037656D01*
X019742Y037557D02*
X018410Y037557D01*
X018410Y037459D02*
X019742Y037459D01*
X019742Y037360D02*
X018410Y037360D01*
X018410Y037262D02*
X019742Y037262D01*
X019742Y037163D02*
X018410Y037163D01*
X018410Y037065D02*
X019742Y037065D01*
X019742Y036966D02*
X018410Y036966D01*
X018410Y036868D02*
X019742Y036868D01*
X019742Y036769D02*
X018410Y036769D01*
X018410Y036671D02*
X019742Y036671D01*
X019742Y036572D02*
X018410Y036572D01*
X018410Y036474D02*
X019742Y036474D01*
X019742Y036375D02*
X018410Y036375D01*
X018410Y036277D02*
X019742Y036277D01*
X019742Y036178D02*
X018410Y036178D01*
X018410Y036080D02*
X019742Y036080D01*
X019742Y035981D02*
X018410Y035981D01*
X018410Y035883D02*
X019742Y035883D01*
X019742Y035784D02*
X018410Y035784D01*
X018410Y035686D02*
X019742Y035686D01*
X019742Y035587D02*
X018410Y035587D01*
X018410Y035489D02*
X019742Y035489D01*
X019742Y035390D02*
X018410Y035390D01*
X018410Y035292D02*
X019742Y035292D01*
X019742Y035193D02*
X018410Y035193D01*
X018410Y035095D02*
X019742Y035095D01*
X019742Y034996D02*
X018410Y034996D01*
X018410Y034898D02*
X019742Y034898D01*
X019742Y034799D02*
X018410Y034799D01*
X018410Y034701D02*
X019742Y034701D01*
X019742Y034602D02*
X018410Y034602D01*
X018410Y034504D02*
X019742Y034504D01*
X019742Y034405D02*
X018410Y034405D01*
X018410Y034307D02*
X019742Y034307D01*
X019742Y034208D02*
X018410Y034208D01*
X018410Y034110D02*
X019742Y034110D01*
X019742Y034011D02*
X018410Y034011D01*
X018410Y033913D02*
X019742Y033913D01*
X019742Y033814D02*
X018410Y033814D01*
X018410Y033716D02*
X019742Y033716D01*
X019742Y033617D02*
X018410Y033617D01*
X018410Y033519D02*
X019742Y033519D01*
X019742Y033420D02*
X018410Y033420D01*
X018410Y033322D02*
X019742Y033322D01*
X019742Y033223D02*
X018410Y033223D01*
X018410Y033125D02*
X019742Y033125D01*
X019742Y033026D02*
X018410Y033026D01*
X018410Y032928D02*
X019742Y032928D01*
X019742Y032829D02*
X018410Y032829D01*
X018410Y032731D02*
X019742Y032731D01*
X019742Y032632D02*
X018410Y032632D01*
X018410Y032534D02*
X019742Y032534D01*
X019742Y032435D02*
X018410Y032435D01*
X018410Y032337D02*
X019742Y032337D01*
X019742Y032238D02*
X018410Y032238D01*
X018410Y032140D02*
X019742Y032140D01*
X019742Y032041D02*
X018410Y032041D01*
X018410Y031943D02*
X019742Y031943D01*
X019742Y031844D02*
X018410Y031844D01*
X018410Y031746D02*
X019742Y031746D01*
X019742Y031647D02*
X018410Y031647D01*
X018410Y031549D02*
X019742Y031549D01*
X019742Y031450D02*
X018410Y031450D01*
X018410Y031352D02*
X019739Y031352D01*
X019739Y031253D02*
X018410Y031253D01*
X018410Y031155D02*
X019739Y031155D01*
X019739Y031056D02*
X018410Y031056D01*
X018410Y030958D02*
X019739Y030958D01*
X019739Y030859D02*
X018410Y030859D01*
X018410Y030761D02*
X019739Y030761D01*
X019739Y030662D02*
X018410Y030662D01*
X018410Y030564D02*
X019739Y030564D01*
X019739Y030465D02*
X018410Y030465D01*
X018410Y030367D02*
X019739Y030367D01*
X019739Y030268D02*
X018410Y030268D01*
X018410Y030170D02*
X019676Y030170D01*
X019578Y030071D02*
X018410Y030071D01*
X018410Y029973D02*
X019479Y029973D01*
X019381Y029874D02*
X018410Y029874D01*
X018410Y029776D02*
X019282Y029776D01*
X019184Y029677D02*
X018410Y029677D01*
X018410Y029579D02*
X019085Y029579D01*
X018987Y029480D02*
X018410Y029480D01*
X018410Y029382D02*
X018888Y029382D01*
X018790Y029283D02*
X018410Y029283D01*
X018410Y029185D02*
X018691Y029185D01*
X018593Y029086D02*
X018410Y029086D01*
X018410Y028988D02*
X018494Y028988D01*
X025785Y025934D02*
X027209Y025934D01*
X027209Y025836D02*
X025835Y025836D01*
X025875Y025737D02*
X027209Y025737D01*
X027209Y025639D02*
X025877Y025639D01*
X025877Y025540D02*
X027209Y025540D01*
X027209Y025442D02*
X025840Y025442D01*
X025799Y025343D02*
X027209Y025343D01*
X027209Y025245D02*
X025700Y025245D01*
X024898Y018448D02*
X023849Y018448D01*
X023948Y018350D02*
X024939Y018350D01*
X025034Y018251D02*
X023997Y018251D01*
X024037Y018153D02*
X025202Y018153D01*
X025076Y018054D02*
X024039Y018054D01*
X024039Y017956D02*
X024978Y017956D01*
X024915Y017857D02*
X024001Y017857D01*
X023959Y017759D02*
X024875Y017759D01*
X024864Y017660D02*
X023860Y017660D01*
X023834Y017463D02*
X024892Y017463D01*
X024864Y017562D02*
X023680Y017562D01*
X023933Y017365D02*
X024932Y017365D01*
X025019Y017266D02*
X023990Y017266D01*
X024031Y017168D02*
X025166Y017168D01*
X025103Y017069D02*
X024039Y017069D01*
X024039Y016971D02*
X024993Y016971D01*
X024922Y016872D02*
X024007Y016872D01*
X023967Y016774D02*
X024881Y016774D01*
X024864Y016675D02*
X023875Y016675D01*
X023716Y016577D02*
X024864Y016577D01*
X024885Y016478D02*
X023819Y016478D01*
X023918Y016380D02*
X024926Y016380D01*
X025004Y016281D02*
X023984Y016281D01*
X024025Y016183D02*
X025130Y016183D01*
X025139Y016084D02*
X024039Y016084D01*
X024039Y015986D02*
X025008Y015986D01*
X024928Y015887D02*
X024014Y015887D01*
X023973Y015789D02*
X024887Y015789D01*
X024864Y015690D02*
X023890Y015690D01*
X023753Y015592D02*
X024864Y015592D01*
X024879Y015493D02*
X023784Y015493D01*
X023903Y015395D02*
X024920Y015395D01*
X024989Y015296D02*
X023978Y015296D01*
X024019Y015198D02*
X025093Y015198D01*
X025175Y015099D02*
X024039Y015099D01*
X024039Y015001D02*
X025023Y015001D01*
X024934Y014902D02*
X024020Y014902D01*
X023979Y014804D02*
X024893Y014804D01*
X024864Y014705D02*
X023905Y014705D01*
X023789Y014607D02*
X024864Y014607D01*
X024873Y014508D02*
X023747Y014508D01*
X023888Y014410D02*
X024914Y014410D01*
X024974Y014311D02*
X023972Y014311D01*
X024013Y014213D02*
X025073Y014213D01*
X025211Y014114D02*
X024039Y014114D01*
X024039Y014016D02*
X025038Y014016D01*
X024940Y013917D02*
X024026Y013917D01*
X023985Y013819D02*
X024899Y013819D01*
X024864Y013720D02*
X023920Y013720D01*
X023822Y013622D02*
X024864Y013622D01*
X024867Y013523D02*
X023711Y013523D01*
X023873Y013425D02*
X024908Y013425D01*
X024959Y013326D02*
X023966Y013326D01*
X024006Y013228D02*
X025058Y013228D01*
X025787Y012932D02*
X027209Y012932D01*
X027209Y012834D02*
X025835Y012834D01*
X025876Y012735D02*
X027209Y012735D01*
X027209Y012637D02*
X025877Y012637D01*
X025877Y012538D02*
X027209Y012538D01*
X027209Y012440D02*
X025840Y012440D01*
X025797Y012341D02*
X027209Y012341D01*
X027209Y012243D02*
X025698Y012243D01*
X022389Y012538D02*
X004746Y012538D01*
X004731Y011553D02*
X022404Y011553D01*
X020009Y006792D02*
X020009Y006792D01*
X008449Y003476D02*
X008266Y003476D01*
X008264Y003380D02*
X008264Y003147D01*
X008280Y003147D01*
X008266Y003378D02*
X008331Y003378D01*
X004775Y003378D02*
X000650Y003378D01*
X000650Y003476D02*
X004775Y003476D01*
X004775Y003575D02*
X000650Y003575D01*
X000650Y003673D02*
X004775Y003673D01*
X004775Y003772D02*
X000650Y003772D01*
X000650Y003870D02*
X004775Y003870D01*
X004775Y003969D02*
X000650Y003969D01*
X000650Y004067D02*
X004775Y004067D01*
X004775Y004166D02*
X000650Y004166D01*
X000650Y004264D02*
X004775Y004264D01*
X004775Y004363D02*
X000650Y004363D01*
X000650Y004461D02*
X004775Y004461D01*
X004789Y004560D02*
X000650Y004560D01*
X000650Y004658D02*
X004888Y004658D01*
X004775Y003279D02*
X000650Y003279D01*
X000650Y003181D02*
X004775Y003181D01*
X004775Y003082D02*
X000650Y003082D01*
X000650Y002984D02*
X004775Y002984D01*
X004775Y002885D02*
X000650Y002885D01*
X000650Y002787D02*
X004775Y002787D01*
X004775Y002688D02*
X000650Y002688D01*
X000650Y002590D02*
X004775Y002590D01*
X004775Y002491D02*
X000650Y002491D01*
X000650Y002393D02*
X004775Y002393D01*
X004775Y002294D02*
X000650Y002294D01*
X000650Y002196D02*
X004775Y002196D01*
X004775Y002097D02*
X000650Y002097D01*
X000650Y001999D02*
X004775Y001999D01*
X004775Y001900D02*
X000742Y001900D01*
X000841Y001802D02*
X004775Y001802D01*
X004775Y001703D02*
X000939Y001703D01*
X003803Y009583D02*
X004403Y009583D01*
X004253Y009682D02*
X003952Y009682D01*
X004040Y009780D02*
X004165Y009780D01*
X004125Y009879D02*
X004081Y009879D01*
X004803Y009583D02*
X005577Y009583D01*
X005629Y009682D02*
X004952Y009682D01*
X005040Y009780D02*
X005681Y009780D01*
X005687Y009793D02*
X005687Y009793D01*
X005812Y009879D02*
X005081Y009879D01*
X006508Y009893D02*
X006508Y009893D01*
D135*
X015996Y003395D02*
X016174Y003218D01*
X016174Y002076D01*
D136*
X015996Y003395D02*
X008418Y003395D01*
X008398Y003376D01*
D137*
X008398Y003336D01*
X008280Y003218D01*
D138*
X006099Y028049D02*
X004603Y028049D01*
X003595Y028049D01*
X006099Y028049D02*
X018248Y028049D01*
X020229Y030029D01*
X020229Y031286D01*
X020232Y031289D01*
X020232Y038109D01*
X020221Y038120D01*
X020232Y031289D02*
X020232Y030874D01*
X006181Y028131D02*
X006099Y028049D01*
X006181Y028131D02*
X006181Y036903D01*
X005762Y037323D01*
X005762Y038111D01*
M02*
